<?xml version="1.0" standalone="no"?>
<!DOCTYPE svg PUBLIC "-//W3C//DTD SVG 1.1//EN" "http://www.w3.org/Graphics/SVG/1.1/DTD/svg11.dtd" >
<svg xmlns="http://www.w3.org/2000/svg">
<metadata>
Created by FontForge 20120731 at Sat Aug 20 08:28:11 2016
 By admin
</metadata>
<defs>
<font id="iconfont" horiz-adv-x="1024" >
  <font-face 
    font-family="iconfont"
    font-weight="500"
    font-stretch="normal"
    units-per-em="1024"
    panose-1="2 0 6 3 0 0 0 0 0 0"
    ascent="896"
    descent="-128"
    x-height="792"
    bbox="-1 -128.267 1303.6 896.362"
    underline-thickness="50"
    underline-position="-100"
    unicode-range="U+0078-E847"
  />
<missing-glyph horiz-adv-x="374" 
d="M34 0v682h272v-682h-272zM68 34h204v614h-204v-614z" />
    <glyph glyph-name=".notdef" horiz-adv-x="374" 
d="M34 0v682h272v-682h-272zM68 34h204v614h-204v-614z" />
    <glyph glyph-name=".null" horiz-adv-x="0" 
 />
    <glyph glyph-name="nonmarkingreturn" horiz-adv-x="341" 
 />
    <glyph glyph-name="x" unicode="x" horiz-adv-x="1001" 
d="M281 543q-27 -1 -53 -1h-83q-18 0 -36.5 -6t-32.5 -18.5t-23 -32t-9 -45.5v-76h912v41q0 16 -0.5 30t-0.5 18q0 13 -5 29t-17 29.5t-31.5 22.5t-49.5 9h-133v-97h-438v97zM955 310v-52q0 -23 0.5 -52t0.5 -58t-10.5 -47.5t-26 -30t-33 -16t-31.5 -4.5q-14 -1 -29.5 -0.5
t-29.5 0.5h-32l-45 128h-439l-44 -128h-29h-34q-20 0 -45 1q-25 0 -41 9.5t-25.5 23t-13.5 29.5t-4 30v167h911zM163 247q-12 0 -21 -8.5t-9 -21.5t9 -21.5t21 -8.5q13 0 22 8.5t9 21.5t-9 21.5t-22 8.5zM316 123q-8 -26 -14 -48q-5 -19 -10.5 -37t-7.5 -25t-3 -15t1 -14.5
t9.5 -10.5t21.5 -4h37h67h81h80h64h36q23 0 34 12t2 38q-5 13 -9.5 30.5t-9.5 34.5q-5 19 -11 39h-368zM336 498v228q0 11 2.5 23t10 21.5t20.5 15.5t34 6h188q31 0 51.5 -14.5t20.5 -52.5v-227h-327z" />
    <glyph glyph-name="uniE775" unicode="&#xe775;" horiz-adv-x="1025" 
d="M483 413v8v327q0 23 19 29q13 5 24.5 -2.5t12.5 -21.5v-8v-325v-7h8q242 0 326 -1q8 0 12 -1q10 -2 15.5 -10.5t4.5 -18.5q0 -10 -7 -17t-17 -9h-9h-324h-9v-8v-328q0 -25 -22 -30q-12 -3 -22.5 5t-11.5 21v7v325v8h-8h-326q-18 0 -27 11q-9 13 -3.5 27.5t21.5 17.5
q4 1 10 1h325h8z" />
    <glyph glyph-name="uniE776" unicode="&#xe776;" horiz-adv-x="1134" 
d="M376 14q-91 0 -155 52.5t-77 134.5q-17 109 59 186q36 36 277 276q9 9 20.5 9t19.5 -8t8 -19.5t-9 -20.5q-177 -176 -272 -270q-31 -31 -44 -71q-22 -72 19 -137t114 -75q86 -13 147 48q68 68 198 197t191 190q28 28 34 65q6 42 -19 78t-66 45q-65 14 -111 -36l-15 -15
q-30 -30 -85.5 -85t-101 -100t-85.5 -85q-15 -16 -17 -36.5t10 -37.5q15 -19 39.5 -22t42.5 13l6 6q133 133 172 171q13 13 29 8q14 -4 18 -17.5t-5 -25.5q-1 -1 -3 -4q-161 -159 -176 -174q-30 -29 -69.5 -32t-72 19.5t-43.5 62.5q-15 61 30 107l108 108q152 150 175 173
q25 25 41 35q37 23 79 24.5t77.5 -15t62 -49.5t32.5 -75q13 -83 -45 -142q-151 -151 -395 -392q-63 -63 -143 -64v0z" />
    <glyph glyph-name="uniE778" unicode="&#xe778;" horiz-adv-x="1182" 
d="M412 678h-217q-24 0 -27 23q-2 12 5.5 21t18.5 9h5h739q25 0 29 -22q2 -12 -5.5 -21t-18.5 -10h-7h-351h-8q4 -1 4 -2q21 -5 34 -24q37 -58 173 -268q168 -258 170 -261q11 -17 9.5 -36t-16.5 -33q-14 -14 -35 -15h-5h-686q-39 0 -52 34q-10 26 6 50q9 14 97 150
q198 305 242 373q18 27 40 32h-144zM912 93v1l-1 1l-1 1v1l-1 1l-1 1v1l-1 1l-1 1v1l-1 1v1l-1 1l-1 1v1l-1 1l-1 1v1l-1 1l-1 1v1l-1 1l-1 1v1l-1 1l-1 1v1l-1 1l-1 1v1l-1 1v1l-1 1l-1 1v1l-1 1l-1 1v1l-1 1l-1 1v1l-1 1l-1 1v1l-1 1l-1 1v1l-1 1l-1 1v1l-1 1l-1 1v1l-1 1
v1l-1 1l-1 1v1l-1 1l-1 1v1l-1 1l-1 1v1l-1 1l-1 1v1l-1 1l-1 1v1l-1 1l-1 1v1l-1 1v1l-1 1l-1 1v1l-1 1l-1 1v1l-1 1l-1 1v1l-1 1l-1 1v1l-1 1l-1 1v1l-1 1l-1 1v1l-1 1v1l-1 1l-1 1v1l-1 1l-1 1v1l-1 1l-1 1v1l-1 1l-1 1v1l-1 1l-1 1v1l-1 1l-1 1v1l-1 1v1l-1 1l-1 1v1
l-1 1l-1 1v1l-1 1l-1 1v1l-1 1l-1 1v1l-1 1l-1 1v1l-1 1l-1 1v1l-1 1v1l-1 1l-1 1v1l-1 1l-1 1v1l-1 1l-1 1v1l-1 1l-1 1v1l-1 1l-1 1v1l-1 1l-1 1v1l-1 1v1l-1 1l-1 1v1l-1 1l-1 1v1l-1 1l-1 1v1l-1 1l-1 1v1l-1 1l-1 1v1l-1 1l-1 1v1l-1 1v1l-1 1l-1 1v1l-1 1l-1 1v1l-1 1
l-1 1v1l-1 1l-1 1v1l-1 1l-1 1v1l-1 1l-1 1v1l-1 1l-1 2l-1 1v1l-1 1l-1 1v1l-1 1l-1 1v1l-1 1l-1 1v1l-1 1l-1 1v1l-1 1l-1 1v1l-1 1v1l-1 1l-1 1v1l-1 1l-1 1v1l-1 1l-1 1v1l-1 1l-1 1v1l-1 1l-1 1v1l-1 1l-1 1v1l-1 1v1l-1 1l-1 1v1l-1 1l-1 1v1l-1 1l-1 1v1l-1 1l-1 1v1
l-1 1l-1 1v1l-1 1l-1 1v1l-1 1v1l-1 1l-1 1v1l-1 1l-1 1v1l-1 1l-1 1v1l-1 1l-1 1v1l-1 1l-1 1v1l-1 1l-1 1v1l-1 1v1l-1 1l-1 1v1l-1 1l-1 1v1l-1 1l-1 1v1l-1 1l-1 1v1l-1 1l-1 1v1l-1 1l-1 1v1l-1 1v1l-1 1l-1 1v1l-1 1l-1 1v1l-1 1l-1 1v1l-1 1l-1 1v1l-1 1l-1 1v1l-1 1
l-1 1v1l-1 1v1l-1 1l-1 1v1l-1 1l-1 1v1l-1 1l-1 1v1l-1 1l-1 1v1l-1 1l-1 1v1l-1 1l-1 1v1l-1 1v1l-1 1l-1 1v1l-1 1l-1 1v1l-1 1l-1 1v1l-1 1l-1 1v1l-1 1l-1 1v1l-1 1v1l-1 1l-1 1v1l-1 1l-1 1v1l-1 1l-1 1v1l-1 1l-1 1v1l-1 1l-1 1v1l-1 1l-1 1v1l-1 1v1l-1 1l-1 1v1
l-1 1l-1 1v1l-1 1l-1 1v1l-1 1l-1 1v1l-1 1l-1 1v1l-1 1l-1 1v1l-1 1v1l-1 1l-1 1v1l-1 1l-1 1v1l-1 1l-1 1v1l-1 1l-1 1v1l-1 1l-1 1v1l-1 1l-1 1v1l-1 1v1l-1 1l-1 1v1l-1 1l-1 1v1l-1 1l-1 1v1l-1 1l-1 1v1l-1 1l-1 1v1l-1 1l-1 1v1l-1 1v1l-1 1l-1 1v1l-1 1l-1 1v1l-1 1
l-1 1v1l-1 1l-1 1v1l-1 1l-1 1v1l-1 1l-1 1v1l-1 1v1l-1 1l-1 1v1l-1 1l-1 1v1l-1 1l-1 1v1l-1 1l-1 1v1l-1 1l-1 1v1l-1 1l-1 1v1l-1 1v1l-1 1l-1 1v1l-1 1l-1 1v1l-1 1l-1 1v1l-1 1l-1 1v1l-1 1l-1 1v1l-1 1l-1 1v1l-1 1v1l-1 1l-1 1v1l-1 1l-1 1v1l-1 1l-1 1v1l-1 1l-1 1
v1l-1 1l-1 1v1l-1 1l-1 1v1l-1 1v1l-1 1l-1 1v1l-1 1l-1 1v1l-1 1l-1 1v1l-1 1l-1 1v1l-1 1l-1 1v1l-1 1l-1 1v1l-1 1l-1 1v-1l-1 -1l-1 -1v-1l-1 -1l-1 -1v-1l-1 -1l-1 -1v-1l-1 -1v-1l-1 -1l-1 -1v-1l-1 -1l-1 -1v-1l-1 -1l-1 -1v-1l-1 -1l-1 -1v-1l-1 -1l-1 -1v-1l-1 -1
l-1 -1v-1l-1 -1l-1 -1v-1l-1 -1v-1l-1 -1l-1 -1v-1l-1 -1l-1 -1v-1l-1 -1l-1 -1v-1l-1 -1l-1 -1v-1l-1 -1l-1 -1v-1l-1 -1l-1 -1v-1l-1 -1v-1l-1 -1l-1 -1v-1l-1 -1l-1 -1v-1l-1 -1l-1 -1v-1l-1 -1l-1 -1v-1l-1 -1l-1 -1v-1l-1 -1l-1 -1v-1l-1 -1v-1l-1 -1l-1 -1v-1l-1 -1
l-1 -1v-1l-1 -1l-1 -1v-1l-1 -1l-1 -1v-1l-1 -1l-1 -1v-1l-1 -1l-1 -1v-1l-1 -1v-1l-1 -1l-1 -1v-1l-1 -1l-1 -1l-1 -1v-1l-1 -1l-1 -1v-1l-1 -1v-1l-1 -1l-1 -1v-1l-1 -1l-1 -1v-1l-1 -1l-1 -1v-1l-1 -1l-1 -1v-1l-1 -1l-1 -1v-1l-1 -1l-1 -1v-1l-1 -1v-1l-1 -1l-1 -1v-1
l-1 -1l-1 -1v-1l-1 -1l-1 -1v-1l-1 -1l-1 -1v-1l-1 -1l-1 -1v-1l-1 -1l-1 -1v-1l-1 -1v-1l-1 -1l-1 -1v-1l-1 -1l-1 -1v-1l-1 -1l-1 -1v-1l-1 -1l-1 -1v-1l-1 -1l-1 -1v-1l-1 -1l-1 -1v-1l-1 -1v-1l-1 -1l-1 -1v-1l-1 -1l-1 -1v-1l-1 -1l-1 -1v-1l-1 -1l-1 -1v-1l-1 -1
l-1 -1v-1l-1 -1l-1 -1v-1l-1 -1v-1l-1 -1l-1 -1v-1l-1 -1l-1 -1v-1l-1 -1l-1 -1v-1l-1 -1l-1 -1v-1l-1 -1l-1 -1v-1l-1 -1l-1 -1v-1l-1 -1v-1l-1 -1l-1 -1v-1l-1 -1l-1 -1v-1l-1 -1l-1 -1v-1l-1 -1l-1 -1v-1l-1 -1l-1 -1v-1l-1 -1l-1 -1v-1l-1 -1v-1l-1 -1l-1 -1v-1l-1 -1
l-1 -1v-1l-1 -1l-1 -1v-1l-1 -1l-1 -1v-1l-1 -1l-1 -1v-1l-1 -1l-1 -1v-1l-1 -1v-1l-1 -1l-1 -1v-1l-1 -1l-1 -1v-1l-1 -1l-1 -1v-1l-1 -1l-1 -1v-1l-1 -1l-1 -1v-1l-1 -1l-1 -1v-1l-1 -1v-1l-1 -1l-1 -1v-1l-1 -1l-1 -1v-1l-1 -1l-1 -1v-1l-1 -1l-1 -1v-1l-1 -1l-1 -1v-1
l-1 -1l-1 -1v-1l-1 -1v-1l-1 -1l-1 -1v-1l-1 -1l-1 -1v-1l-1 -1l-1 -1v-1l-1 -1l-1 -1v-1l-1 -1l-1 -1v-1l-1 -1l-1 -1v-1l-1 -1v-1l-1 -1l-1 -1v-1l-1 -1l-1 -1v-1l-1 -1l-1 -1v-1l-1 -1l-1 -1v-1l-1 -1l-1 -1v-1l-1 -1v-1l-1 -1l-1 -1v-1l-1 -1l-1 -1v-1l-1 -1l-1 -1v-1
l-1 -1l-1 -1v-1l-1 -1l-1 -1v-1l-1 -1l-1 -1v-1l-1 -1v-1l-1 -1l-1 -1v-1l-1 -1l-1 -1v-1l-1 -1l-1 -1v-1l-1 -1l-1 -1v-1l-1 -1l-1 -1v-1l-1 -1l-1 -1v-1l-1 -1v-1l-1 -1l-1 -1v-1l-1 -1l-1 -1v-1l-1 -1l-1 -1v-1l-1 -1l-1 -1v-1l-1 -1l-1 -1v-1l-1 -1l-1 -1v-1l-1 -1v-1
l-1 -1l-1 -1v-1l-1 -1l-1 -1v-1l-1 -1l-1 -1v-1l-1 -1l-1 -1v-1l-1 -1l-1 -1v-1l-1 -1l-1 -1v-1l-1 -1v-1l-1 -1l-1 -1v-1l-1 -1l-1 -1v-1l-1 -1l-1 -1v-1l-1 -1l-1 -1v-1l-1 -1l-1 -1v-1l-1 -1v-1l-1 -1l-1 -1v-1l-1 -1l-1 -1v-1l-1 -1l-1 -1v-1l-1 -1l-1 -1v-1l-1 -1
l-1 -1v-1l-1 -1l-1 -1v-1l-1 -1v-1l-1 -1l-1 -1v-1l-1 -1l-1 -1v-1l-1 -1l-1 -1v-1l-1 -1l-1 -1v-1l-1 -1l-1 -1v-1l-1 -1l-1 -1v-1l-1 -1v-1l-1 -1l-1 -1v-1l-1 -1l-1 -1v-1l-1 -1l-1 -1v-1l-1 -1l-1 -1v-1l-1 -1l-1 -1v-1l-1 -1l-1 -1v-1l-1 -1v-1l-1 -1l-1 -1v-1l-1 -1
l-1 -1v-1l-1 -1l-1 -1v-1l-1 -1l-1 -1v-1l-1 -1l-1 -1v-1l-1 -1l-1 -1v-1l-1 -1v-1l-1 -1l-1 -1v-1l-1 -1l-1 -1v-1l-1 -1l-1 -1v-1l-1 -1l-1 -1v-1l-1 -1l-1 -1v-1l-1 -1l-1 -1v-1l-1 -1v-1l-1 -1l-1 -1v-1l-1 -1l-1 -1v-1l-1 -1l-1 -1v-1l-1 -1l-1 -1h692z" />
    <glyph glyph-name="uniE779" unicode="&#xe779;" 
d="M477 385q-5 4 -5 5q-14 13 -118 116l-158 159q-10 10 -9 23q2 14 15.5 19.5t25.5 -3.5l5 -5q170 -170 273 -274q1 0 4 -5h1h1l4 5q45 45 136.5 137t138.5 138q11 12 25 9t18.5 -17t-5.5 -24q-1 -1 -4 -5q-194 -193 -274 -273l-6 -5l6 -5q39 -39 132 -131.5t143 -142.5
q9 -10 9 -20q0 -16 -14 -23t-27 4l-5 5l-273 273l-4 5l-5 -4q-207 -208 -276 -276q-12 -12 -26 -8q-13 3 -17 16.5t5 23.5q1 1 4 5q168 167 274 274q1 0 6 4v0z" />
    <glyph glyph-name="uniE780" unicode="&#xe780;" horiz-adv-x="1297" 
d="M902 176q-54 -14 -55 -14q-460 -112 -543 -133q-43 -10 -72 -3q-36 9 -60.5 38t-27.5 66v23v479q0 74 66 108q41 21 88 5q21 -7 21 -29v-119v-7h5q503 125 572 142q40 9 55 11q42 5 78.5 -22t44.5 -69q3 -13 3 -27v-493q0 -51 -37 -85.5t-87 -30.5q-13 0 -32 7
q-16 5 -19 23v9v113v8zM1019 234v300q0 86 -1 94q0 23 -16 40t-40 17q-10 0 -34 -6q-152 -37 -556 -137q-3 -1 -53 -13v-8v-297q0 -17 -11.5 -25.5t-28.5 -4.5q-14 4 -26 3q-24 -3 -39 -23t-11 -44t23.5 -38t43.5 -10q13 2 27 5q277 68 565 139q47 12 56 15q40 13 74 3
q1 -1 27 -10zM260 693q-24 0 -41 -17t-17 -40v-391l1 -4q26 14 57 15v437zM961 73q34 2 50 30q18 32 -4 63q-16 23 -46 24v-117z" />
    <glyph glyph-name="uniE783" unicode="&#xe783;" horiz-adv-x="1095" 
d="M106 349h-44q-33 -3 -48 21q-19 31 -5 61q7 15 19 25q61 55 270 239q29 26 62.5 55.5t74 66t63.5 55.5q23 21 49.5 21t49.5 -21q220 -194 470 -415q22 -20 24 -47t-17 -48q-12 -13 -29 -13h-56v-9v-361q0 -61 -51 -93q-23 -13 -56 -13h-324h-346q-13 0 -21 2
q-39 7 -62 35t-23 68v361v10zM87 418h1v-1h7h46q24 -1 31 -24q2 -6 2 -16v-398q0 -38 38 -38h671q8 0 13 1q25 7 25 35v197v206q0 17 10 27t27 10h22h22h7q-306 271 -461 408q-245 -216 -461 -407z" />
    <glyph glyph-name="uniE786" unicode="&#xe786;" 
d="M503 830q-150 -1 -268.5 -90.5t-159.5 -233.5q-7 -23 -25 -28q-18 -4 -30.5 9t-7.5 31q30 110 103 195q124 144 302 172q279 43 468 -166q101 -112 122 -271q17 -127 -28.5 -245t-140 -202t-218.5 -112q-250 -56 -448 108q-117 98 -160 252q-3 14 3 25t19 15t24.5 -2.5
t14.5 -19.5q27 -98 90 -170q109 -128 270 -152q155 -24 288 51t193 218q43 104 31 216q-15 143 -109.5 249.5t-235.5 138.5q-21 5 -39 7q-5 1 -58 5zM445 354h-180q-3 17 1.5 26t19.5 12q56 13 124 19q3 1 55 5v87h-186q1 24 2 26q1 8 12 10q88 15 110 18q4 1 63 6v7v38
q0 15 14 20q31 11 43 14q22 6 22 -17v-55v-8q31 -2 32 -2q91 -7 147 -22q11 -3 14.5 -7.5t3.5 -15.5v-11h-196v-88q30 -2 32 -2q90 -5 161 -22q18 -5 19 -24v-14h-9h-203q-6 0 -11 -5q-44 -47 -83 -86q-9 -9 -27 -26.5t-26 -25.5q-6 -6 -9 -14q-5 -13 7 -18q8 -3 16 -3h230
q22 0 31 19q8 19 -5 34q-9 11 -20 11q-10 0 -25 -2q-11 -1 -11 9q0 20 -13 30t-33 6q-4 -1 -7 -2q-10 -3 -15 6q-1 1 -0.5 2.5t0.5 2.5q18 19 42.5 22t40.5 -13q7 -6 14 -22q3 -6 9 -5q24 2 44 -4q22 -7 35.5 -23.5t15.5 -39.5q4 -52 -42 -74q-19 -9 -38 -9h-304
q-18 0 -38 7q-20 6 -28.5 22.5t-1.5 37.5q6 19 22 35q42 40 124 122q1 0 6 4v2h-1z" />
    <glyph glyph-name="uniE78A" unicode="&#xe78a;" horiz-adv-x="1771" 
d="M868 291l10 13l134 134l159 159q23 23 52 20q34 -5 46 -37q12 -30 -9 -57q-2 -3 -10 -11q-168 -167 -335 -335q-47 -47 -94 0l-337 337q-28 27 -20 60q8 31 39 40.5t56 -11.5q2 -3 24 -25q190 -189 275 -274z" />
    <glyph glyph-name="uniE78B" unicode="&#xe78b;" 
d="M635 385l-9 7q-45 44 -152 151l-164 164q-18 18 -13 39q4 21 25 28.5t37 -6.5l7 -7l345 -345q32 -31 0 -63l-346 -346q-18 -19 -40 -13q-21 5 -27.5 25.5t6.5 36.5l8 8l314 314z" />
    <glyph glyph-name="uniE78F" unicode="&#xe78f;" horiz-adv-x="1042" 
d="M387 573q-62 68 -73 80q-114 124 -125 137q-14 15 -10.5 31.5t22.5 23.5q10 5 50.5 21.5t62.5 26.5q20 8 37 -4q43 -30 140.5 -99t150.5 -105q6 -5 12 -2q150 62 205 85q54 22 105.5 -2.5t68.5 -79.5q14 -48 -7.5 -93t-68.5 -64q-32 -13 -340 -141q-279 -116 -342 -142
q-23 -10 -41 8q-43 40 -121.5 115t-96.5 93q-14 13 -11.5 29.5t19.5 25.5q16 8 51.5 26t54.5 28t36 -1q40 -24 84 -49q4 -3 8 -1q33 13 126 52zM92 479q6 -5 6 -6q128 -122 163 -156q5 -5 11 -2q128 53 364.5 151t294.5 122q9 4 16 9q20 14 25 38t-7 45q-12 22 -35 30
t-47 -2q-149 -61 -220 -91q-23 -10 -44 4q-55 40 -159 112.5t-129 89.5q-5 5 -12 2q-4 -2 -47 -20l-7 -3l7 -7q146 -160 192 -210q14 -15 10.5 -31.5t-23.5 -24.5q-11 -4 -79.5 -32.5t-104.5 -43.5q-18 -8 -35 3q-29 17 -81 47q-5 3 -7 2zM522 228q3 37 3 39q1 14 10.5 22.5
t22.5 8.5q14 -1 23 -10.5t8 -23.5q0 -2 -2 -35h128q-3 41 -3 44q-1 7 -8 59q-2 13 5.5 24t20.5 13t24 -5.5t13 -20.5q4 -21 11 -89q1 -1 2 -25h128q-8 36 -8 38q-16 55 -53 98q-15 17 -12 33q5 19 24 24t32 -10q43 -47 64 -106q19 -57 19.5 -112.5t-19.5 -107.5t-53 -94
t-82 -72t-106 -41q-87 -18 -169.5 11t-139 95t-72.5 153q-4 24 -5 57q-1 18 13 27.5t31 3.5q3 -1 7 -1q1 0 8 1.5t11 1.5h116h8zM588 163l-1 -3q4 -81 21 -141q12 -45 30 -70q9 -12 13 -11.5t13 10.5q12 16 23 47q19 54 26 130q0 2 2 38h-127zM395 163q8 -67 49 -121
q45 -61 118 -89q-34 84 -40 210h-127zM780 163q-6 -125 -39 -209q71 25 116 85.5t50 123.5h-127z" />
    <glyph glyph-name="uniE790" unicode="&#xe790;" horiz-adv-x="1131" 
d="M564 778q47 45 49 47q54 43 119.5 60t127.5 5.5t116.5 -43t93 -87t50.5 -123.5q31 -169 -97 -291q-10 -11 -11 -11q-296 -298 -444 -446q-14 -14 -29 -14q-22 1 -31 20q-9 20 5 37q1 2 5 6q365 367 447 449q34 34 43 47q40 53 46.5 117.5t-16 119.5t-71.5 96.5t-114 52.5
q-137 23 -231 -84q-24 -28 -53 -29q-36 -2 -61 28q-38 46 -94 70q-54 25 -110.5 19t-103.5 -30.5t-80.5 -71.5t-42.5 -104q-20 -123 69 -214l72 -72q47 -47 56 -55q49 -50 128 -130q24 -24 4 -48q-9 -13 -24.5 -13.5t-27.5 10.5q-3 3 -47 48q-170 171 -193 194
q-43 42 -61 69q-44 69 -49 149t24 148t90.5 119t141.5 66q178 31 301 -107q0 -1 3 -4z" />
    <glyph glyph-name="uniE792" unicode="&#xe792;" 
d="M787 601q-5 -150 -92 -246q-3 -3 -42 -37q-2 -2 -9 -8t-11 -10q-18 -17 -18.5 -43.5t16.5 -44.5q10 -10 25 -15q20 -6 69.5 -19t85.5 -24t69 -22q63 -21 101.5 -70t40.5 -118q1 -17 1 -35q0 -15 -9.5 -25t-24.5 -10q-14 0 -24 9.5t-10 25.5q-2 50 -3 54q-14 76 -86 101
q-23 8 -143 44q-12 3 -41.5 11.5t-45.5 13.5q-74 22 -87 100q-12 73 43 122q6 5 16.5 13t13.5 11q63 53 86 142q9 36 9 88q0 41 -8 68q-19 69 -79 110.5t-130 36.5q-74 -6 -126.5 -54.5t-61.5 -120.5q-16 -126 48 -220q21 -32 62 -63q63 -48 57 -121q-6 -75 -70 -105
q-8 -4 -60 -19q-8 -3 -73 -21.5t-98 -28.5q-84 -26 -102 -99q-1 -4 -4 -53q-1 -3 -1 -7v-5q0 -14 -9.5 -23.5t-22.5 -9.5q-14 -1 -24 7.5t-11 22.5q-4 72 17 116q33 72 108 105q16 7 34 13t42 12t35 10q6 2 133 38q18 5 29.5 23.5t9.5 39.5q-4 29 -26 46q-122 89 -141 241
q-12 93 8 151q54 163 220 190q108 18 197.5 -45.5t109.5 -172.5q1 -3 7 -70z" />
    <glyph glyph-name="uniE793" unicode="&#xe793;" 
d="M513 -127h-490q-10 0 -12 10q-14 62 1 110q26 89 112 130q13 6 27.5 11t34 10t28.5 8q67 20 147 42q27 7 37 20q17 20 13.5 48.5t-25.5 43.5q-96 68 -129 183q-27 94 -11 177q32 169 198 217q74 21 148 -1.5t125.5 -80t63.5 -133.5q26 -168 -68 -292q-9 -12 -48 -50
q-4 -4 -27 -21.5t-23 -50t24 -49.5q7 -6 15 -8q20 -6 56.5 -16t51.5 -14q104 -30 123 -36q48 -16 83 -54q70 -77 51 -180l-1 -7q-2 -7 -3 -11q0 -6 -7 -6h-5h-490z" />
    <glyph glyph-name="uniE796" unicode="&#xe796;" 
d="M511 895h379q38 0 62 -19.5t31 -56.5q11 -59 -30 -102q-32 -33 -99.5 -101.5t-102.5 -104.5q-57 -58 -57 -140v-119v-119q0 -33 -29 -39q-16 -4 -29 5.5t-15 25.5v5v249q2 107 83 188q50 51 197 201q10 11 11.5 24.5t-6.5 24.5q-1 1 -10 5h-3q-551 0 -765 1q-10 0 -14 -9
q-13 -25 7 -46q81 -83 112 -114q17 -18 49 -50l38 -38q82 -82 82 -196v-457q0 -16 -8.5 -26.5t-24.5 -12.5q-14 -2 -26.5 8t-13.5 25v10v447q0 96 -72 161q-14 14 -29.5 29t-35 35.5t-28.5 29.5q-83 85 -98 101q-29 31 -30 74t28 75q23 26 59 26h388z" />
    <glyph glyph-name="uniE797" unicode="&#xe797;" 
d="M440 20q-88 0 -169 34.5t-139 93t-92.5 139t-34.5 169.5q0 118 58.5 218.5t159.5 159t220 57.5q88 0 168.5 -34.5t138.5 -93t92.5 -139.5t33.5 -169q0 -89 -34.5 -169.5t-93 -139t-139 -92.5t-169.5 -34zM804 455q0 98 -48.5 182t-132 132.5t-181.5 49.5
q-99 0 -182.5 -48.5t-132.5 -132t-49 -182.5q-1 -98 47.5 -181.5t131.5 -132.5t181 -50q100 0 184 48.5t133 132t49 182.5zM840 92q15 0 26 -10q108 -108 145 -146q11 -11 11 -25.5t-10.5 -25t-25.5 -11t-26 10.5l-146 146q-17 17 -7 40q9 21 33 21z" />
    <glyph glyph-name="uniE79C" unicode="&#xe79c;" horiz-adv-x="1263" 
d="M610 805h416q43 0 71.5 -28.5t28.5 -71.5v-640q0 -44 -28.5 -72t-71.5 -28h-833q-38 0 -65 22t-34 59q-1 7 -1 19v639q0 44 28 72.5t72 28.5h417zM609 740h-416q-17 0 -26.5 -9t-9.5 -26v-641q0 -6 1 -10q7 -25 36 -25h830q37 0 37 37v636q0 38 -38 38h-414zM617 331
q-66 1 -101 16q-14 6 -26 14q-33 23 -70 49.5t-81.5 58.5t-69.5 50q-18 13 -15 33q4 20 24 25q14 4 30 -6q25 -19 159 -114q44 -32 47 -34q26 -21 60 -25q56 -7 98 6q10 3 20 10q84 60 220 157q18 13 36 4q16 -9 17 -26.5t-14 -29.5q-5 -3 -95 -67q-109 -78 -122 -87
q-33 -24 -76 -30q-3 -1 -41 -4z" />
    <glyph glyph-name="uniE79E" unicode="&#xe79e;" 
d="M530 893q117 0 233 -66q24 -13 17 -38q-3 -10 -12 -16.5t-20 -5.5q-9 1 -17 6q-73 40 -149 51q-182 27 -328 -77q-147 -106 -179 -283q-20 -110 13 -213.5t108.5 -179.5t178.5 -110q75 -22 147.5 -21.5t140.5 26t123.5 68t97 105t60.5 135.5q43 170 -43 327q-8 14 -6 24
q3 23 26 27q22 5 34 -16q36 -64 51 -129q59 -256 -108 -454q-120 -142 -309 -171q-128 -19 -247.5 23.5t-205 136t-117.5 218.5q-33 134 4.5 264.5t134.5 225.5t231 128q60 15 141 15zM354 639h8h180q60 0 104.5 -37t54.5 -96q12 -63 -26.5 -117.5t-101.5 -64.5
q-15 -3 -31 -3h-117h-8v-8v-150q0 -13 -7.5 -21.5t-19.5 -10.5q-14 -2 -24.5 6.5t-11.5 22.5v7v464v8zM418 385h3h126q38 1 65 28t28 65q1 40 -27 68.5t-69 28.5q-17 1 -121 0h-5v-190z" />
    <glyph glyph-name="uniE79F" unicode="&#xe79f;" horiz-adv-x="1176" 
d="M587 -126h-472q-42 0 -72.5 25.5t-37.5 67.5q-1 7 -1 21v722q0 42 23.5 72t62.5 38q24 4 65 2q14 -1 23 -12.5t8 -26.5q-1 -14 -11.5 -23.5t-24.5 -9.5h-18h-17q-17 0 -27.5 -10.5t-10.5 -27.5v-727q0 -17 10 -27t27 -11h6h936q17 0 26 7q15 10 16 27v8v719q0 42 -42 42
h-31q-14 0 -24.5 9.5t-11.5 23.5q-1 15 7.5 26.5t23.5 12.5q46 4 70 -3q37 -10 59 -39.5t22 -68.5v-572v-152q0 -49 -32 -81t-81 -32h-471zM512 321q108 -66 112 -191h-72q-2 63 -44.5 103t-93.5 42q-64 3 -109 -39q-44 -42 -46 -106h-73q4 125 112 191q-51 59 -35 132
q11 52 55 85q43 33 96.5 29t92.5 -42q41 -39 44 -97.5t-39 -106.5zM405 349q27 -2 50 19t23 53q0 30 -21.5 51.5t-51.5 21.5t-51.5 -21t-21.5 -51.5t21 -51.5t52 -21zM588 750h-147q-13 0 -22.5 8t-12.5 21q-3 12 3 23.5t17 16.5q8 4 16 4h290q16 0 27 -10.5t11 -25.5
q0 -16 -11 -26.5t-27 -10.5h-144zM825 385h-127q-20 0 -31 15t-4 33q8 25 33 25h257q15 0 25.5 -10.5t10.5 -25.5t-10.5 -26t-25.5 -11h-128v0zM862 202h92q13 0 22.5 -8.5t11.5 -21.5t-4 -24t-19 -16q-6 -2 -14 -2h-180q-16 0 -26.5 10t-10.5 26t10.5 26t27.5 10h90v0z
M259 787v71q0 17 11 27.5t28 10.5q12 -1 21.5 -9.5t11.5 -20.5q1 -5 1 -10v-140q0 -18 -11 -29t-28 -10q-13 1 -22.5 9.5t-10.5 20.5q-1 7 -1 40v40zM916 787q0 -70 -1 -76q0 -13 -9 -22.5t-21 -11.5q-14 -1 -25 5.5t-15 18.5q-2 7 -2 14v143q0 16 10.5 27t26 11t26 -10.5
t10.5 -27.5v-71v0z" />
    <glyph glyph-name="uniE7A0" unicode="&#xe7a0;" horiz-adv-x="1025" 
d="M1022 357q0 -105 -51.5 -204.5t-145.5 -171.5t-209 -96q-125 -26 -245.5 8.5t-211.5 121t-132 207.5q-49 145 -9.5 294t153.5 250q111 98 253 122q179 31 339 -59q12 -7 16 -19.5t-2.5 -24.5t-19.5 -15.5t-25 3.5q-72 41 -147 53q-198 31 -353 -92q-135 -107 -162 -275
q-33 -209 106 -369q96 -112 246 -143q138 -29 269 29t203 179q73 123 62 266q-7 94 -53 178q-4 8 -5 9q-6 12 -2 24t15 18q12 7 24 3.5t19 -15.5q23 -38 38 -83q30 -83 30 -198zM645 373q-5 3 -5 11t5 11l-221 -147q1 1 4 1q6 1 12 -2.5t9 -8.5q1 -3 1 -4v300q0 -1 -1 -4
q-3 -6 -9 -9t-12 -2q-3 0 -4 1zM679 424l-221 148q-24 16 -47 4t-23 -42v-300q0 -30 23 -42t47 4l221 148q23 15 23 40t-23 40z" />
    <glyph glyph-name="uniE7A1" unicode="&#xe7a1;" 
d="M852 99h-9h-77q-23 0 -30 21q-8 23 10 35q10 7 21 7q59 1 157 0q14 0 23.5 -9t9.5 -24v-156q0 -14 -9 -23.5t-23 -9.5q-13 0 -22.5 9t-9.5 24v66v9l-6 -6q-113 -122 -268 -154q-249 -51 -442 114q-130 111 -163 279q-49 246 113 436q114 135 290 168q118 22 231.5 -9.5
t201 -110t133.5 -189.5q37 -90 37 -190q0 -13 -7.5 -22t-19.5 -10.5t-22 5t-13 18.5q-1 4 -1 13q-2 136 -78 246.5t-202 161.5q-74 30 -152.5 32.5t-149 -21.5t-131 -68t-104 -109.5t-61.5 -142.5q-29 -119 5.5 -233.5t121.5 -196t206 -107.5q254 -56 436 142l2 2q1 2 2 3z
" />
    <glyph glyph-name="uniE7A2" unicode="&#xe7a2;" 
d="M852 99h-9h-77q-23 0 -30 21q-8 23 10 35q10 7 21 7q59 1 157 0q14 0 23.5 -9t9.5 -24v-156q0 -14 -9 -23.5t-23 -9.5q-13 0 -22.5 9t-9.5 24v66v9l-6 -6q-113 -122 -268 -154q-249 -51 -442 114q-130 111 -163 279q-49 246 113 436q114 135 290 168q118 22 231.5 -9.5
t201 -110t133.5 -189.5q37 -90 37 -190q0 -13 -7.5 -22t-19.5 -10.5t-22 5t-13 18.5q-1 4 -1 13q-2 136 -78 246.5t-202 161.5q-74 30 -152.5 32.5t-149 -21.5t-131 -68t-104 -109.5t-61.5 -142.5q-29 -119 5.5 -233.5t121.5 -196t206 -107.5q254 -56 436 142l2 2q1 2 2 3z
M479 321v64h-7h-114q-9 0 -14 1q-12 3 -18 13t-4.5 22t10.5 20t22 8h103h9q-5 5 -5 6q-103 102 -129 128q-14 14 -10 32q4 17 21 22.5t30 -5.5l6 -6q24 -23 67 -66.5t60 -59.5q0 -1 5 -6q6 5 6 6q15 14 41 40l48 48l40 40q10 11 23 11.5t23 -9.5q9 -8 10 -20t-7 -22
q-2 -2 -6 -7q-25 -24 -69.5 -69t-56.5 -57l-7 -6h9h103q29 0 34 -27q2 -13 -6 -24t-20 -13h-11h-113h-8v-64h7h118q26 0 32 -23q4 -16 -5.5 -28t-25.5 -12h-118h-9v-9v-119q0 -20 -18 -28t-34 4q-11 10 -11 26v118v8h-8h-119q-23 0 -30.5 21t9.5 35q9 7 23 7h116h8z" />
    <glyph glyph-name="uniE7A4" unicode="&#xe7a4;" 
d="M1020 356q1 -105 -50.5 -204t-145 -170.5t-207.5 -95.5q-125 -26 -245 8.5t-210.5 120.5t-131.5 207q-49 144 -10 292.5t153 249.5q111 97 252 121q178 30 338 -59q12 -7 16 -19.5t-3 -24t-19.5 -15t-24.5 3.5q-72 40 -146 52q-198 31 -352 -91q-134 -107 -161 -274
q-33 -208 105 -368q96 -111 245 -142q137 -29 268 28.5t203 178.5q72 123 61 265q-7 93 -53 178q-4 7 -5 8q-6 12 -2 24t15 18q12 7 24 3.5t19 -15.5q22 -38 38 -83q29 -82 29 -197zM639 239q6 5 6 6q11 10 30.5 30t36 36t30.5 31q20 19 41 5q12 -7 14.5 -21t-6.5 -25
q-1 -2 -5 -5q-110 -111 -155 -155q-11 -11 -25 -11t-23 11q-8 9 -8 22v35v404q0 26 20 34q16 6 29.5 -2.5t14.5 -25.5v-7v-353v-9zM385 530q-6 -6 -7 -6q-80 -81 -96 -97q-15 -15 -33 -10q-17 5 -22 21t5 29q2 2 5 6q139 138 155 154q12 12 26 11q12 0 20.5 -8.5t9.5 -20.5
v-7v-435q0 -9 -1 -13q-3 -12 -12.5 -18.5t-22.5 -5.5q-11 2 -19 10.5t-8 20.5v51v309v9z" />
    <glyph glyph-name="uniE7A5" unicode="&#xe7a5;" 
d="M203 159q-31 -9 -33 -10q-45 -19 -78 15q-45 44 -59 58q-30 31 -30 71t30 70l500 500q30 30 70 30t71 -30q13 -14 58 -59q34 -34 14 -79q-19 -41 5.5 -78.5t69.5 -35.5q14 0 32 8q45 19 79 -14q46 -46 58 -59q30 -30 30.5 -70t-30.5 -70q-245 -246 -500 -501
q-30 -30 -70 -30t-70 30l-59 59q-34 35 -14 79q16 37 -1.5 71t-56.5 42q-1 0 -15 2zM818 545q-23 3 -24 3q-71 12 -104 74.5t-4 128.5q3 5 -1 9l-56 56q-26 26 -51 0l-498 -498q-26 -25 0 -51l24 -23q21 -22 31 -33q5 -4 11 -2q36 17 77 12q72 -9 107.5 -72.5t6.5 -130.5
q-3 -5 1 -10q8 -7 55 -55q27 -26 54 0l261 261q202 203 236 236q25 26 0 51l-57 57q-4 4 -9 1q-29 -13 -60 -14zM704 408q0 -15 -10 -24q-158 -158 -181 -182q-11 -10 -24.5 -10.5t-23 9.5t-9 23.5t10.5 23.5l152 152l31 31q15 14 35 6q18 -8 19 -29zM351 329q-20 1 -28 18
q-9 17 2 33q2 2 6 7q17 16 80.5 79.5t97.5 98.5q15 15 33 11q18 -5 23.5 -21.5t-5.5 -30.5l-5 -5l-179 -179q-11 -11 -25 -11z" />
    <glyph glyph-name="uniE7A8" unicode="&#xe7a8;" horiz-adv-x="1771" 
d="M901 478q-9 -12 -10 -13l-141 -141l-147 -147q-25 -25 -54 -20q-34 5 -45 37q-11 31 12 58l7 7q236 235 332 331q47 48 95 0q267 -267 334 -333q16 -17 19 -37t-9 -38q-14 -22 -39.5 -25.5t-44.5 12.5q-3 3 -12 11l-285 285q-1 1 -12 13z" />
    <glyph glyph-name="uniE7A9" unicode="&#xe7a9;" 
d="M142 547q-40 -20 -43 -21q-36 -17 -68 4q-30 19 -30 55q-2 110 71.5 197.5t182.5 105.5q127 20 231 -54q8 -6 14 -12q1 -1 10 -14q24 35 88 61q52 21 107 23t104.5 -15t91.5 -48.5t71.5 -78t40.5 -102.5q6 -27 6 -62q1 -37 -30.5 -57t-64.5 -4q-1 0 -38 18q0 1 -8 4
q4 -27 4 -28q7 -61 -10 -120q-11 -39 -46.5 -49.5t-66.5 15.5l-79 67l-5 4l3 -7q61 -116 69 -245q8 -138 -43 -267q-7 -19 -25.5 -32t-39.5 -12h-603q-14 0 -24 8t-11 21q-2 14 5.5 24.5t20.5 13.5q4 1 13 1h308h9l1 11q3 17 16 34q89 114 101 257q9 121 -39 230q-3 6 -4 9
q-1 1 -4 10q-5 -5 -5 -6q-123 -117 -149 -142q-29 -28 -64 -20.5t-51 44.5q-33 83 -18 171q1 3 1 5v3zM805 415l2 4q15 54 5 108q-19 104 -107 159t-190 28q-5 -1 -10 0q-74 19 -144 -6q-82 -29 -125.5 -106t-26.5 -162q0 -2 14 -51q158 153 287 276l1 -1l1 -1l1 -1l1 -1
l1 -1h1l1 -1l1 -1l1 -1l1 -1l1 -1h1l1 -1l1 -1l1 -1l1 -1l1 -1l1 -1h1l1 -1l1 -1l1 -1l1 -1l1 -1h1l1 -1l1 -1l1 -1l1 -1l1 -1l1 -1h1l1 -1l1 -1l1 -1l1 -1l1 -1h1l1 -1l1 -1l1 -1l1 -1l1 -1l1 -1h1l1 -1l1 -1l1 -1l1 -1l1 -1h1l1 -1l1 -1l1 -1l1 -1l1 -1l1 -1h1l1 -1l1 -1
l1 -1l1 -1l1 -1h1l1 -1l1 -1l1 -1l1 -1l1 -1l1 -1h1l1 -1l1 -1l1 -1l1 -1l1 -1h1l1 -1l1 -1l1 -1l1 -1l1 -1l1 -1h1l1 -1l1 -1l1 -1l1 -1l1 -1h1l1 -1l1 -1l1 -1l1 -1l1 -1l1 -1h1l1 -1l1 -1l1 -1l1 -1l1 -1h1l1 -1l1 -1l1 -1l1 -1l1 -1l1 -1h1l1 -1l1 -1l1 -1l1 -1l1 -1h1
l1 -1l1 -1l1 -1l1 -1l1 -1l1 -1h1l1 -1l1 -1l1 -1l1 -1l1 -1h1l1 -1l1 -1l1 -1l1 -1l1 -1l1 -1h1l1 -1l1 -1l1 -1l1 -1l1 -1h1l1 -1l1 -1l1 -1l1 -1l1 -1l1 -1h1l1 -1l1 -1l1 -1l1 -1l1 -1h1l1 -1l1 -1l1 -1l1 -1l1 -1l1 -1h1l1 -1l1 -1l1 -1l1 -1l1 -1h1l1 -1l1 -1l1 -1
l1 -1l1 -1l1 -1h1l1 -1l1 -1l1 -1l2 -1l1 -1l1 -1l1 -1l1 -1l1 -1h1l1 -1l1 -1l1 -1l1 -1l1 -1l1 -1h1l1 -1l1 -1l1 -1l1 -1l1 -1h1l1 -1l1 -1l1 -1l1 -1l1 -1l1 -1h1l1 -1l1 -1l1 -1l1 -1l1 -1h1l1 -1l1 -1l1 -1l1 -1l1 -1h1l1 -1l1 -1l1 -1l1 -1l1 -1l1 -1h1l1 -1l1 -1
l1 -1l1 -1l1 -1h1l1 -1l1 -1l1 -1l1 -1l1 -1l1 -1h1l1 -1l1 -1l1 -1l1 -1l1 -1h1l1 -1l1 -1l1 -1l1 -1l1 -1l1 -1h1l1 -1l1 -1l1 -1l1 -1l1 -1h1l1 -1l1 -1l1 -1l1 -1l1 -1l1 -1h1l1 -1l1 -1l1 -1l1 -1l1 -1h1l1 -1l1 -1l1 -1l1 -1l1 -1l1 -1h1l1 -1l1 -1l1 -1l1 -1l1 -1h1
l1 -1l1 -1l1 -1l1 -1l1 -1l1 -1h1l1 -1l1 -1l1 -1l1 -1zM952 586q0 66 -37 126.5t-103 90.5q-68 28 -131.5 19t-108.5 -46h1l1 -1h1l1 -1h1l1 -1h1l1 -1h1l1 -1h1l1 -1h1l1 -1h1l1 -1h1l1 -1h1l1 -1h1l1 -1h1l1 -1h1l1 -1h1l1 -1h1l1 -1h1l1 -1h1l1 -1h1l1 -1h1l1 -1h1l1 -1
h1l1 -1h1l1 -1h1l1 -1h1l1 -1h1l1 -1h1l1 -1h1l1 -1h1l1 -1h1l1 -1h1l1 -1h1l1 -1h1l1 -1h1l1 -1h1l1 -1h1l1 -1h1l1 -1h1l1 -1h1l1 -1h1l1 -1h1l1 -1h1l1 -1h1l1 -1h1l1 -1h1l1 -1h1l1 -1h1l1 -1h1l1 -1h1l1 -1h1l1 -1h1l1 -1h1l1 -1h1l1 -1h1l1 -1h1l1 -1h1l1 -1h1l1 -1h1
l1 -1h1l1 -1h1l1 -1h1l1 -1h1l1 -1h1l1 -1h1l1 -1h1l1 -1h1l1 -1h1l1 -1h1l1 -1h1l1 -1h1l1 -1h1l1 -1h1l1 -1h1l1 -1h1l1 -1h1l1 -1h1l1 -1h1l1 -1h1l1 -1h1l1 -1h1l1 -1h1l1 -1h1l1 -1h1l1 -1h1l1 -1h1l1 -1h1l1 -1h1l1 -1h1l1 -1h1l1 -1h1l1 -1h1l1 -1h1l1 -1h1l1 -1h1
l1 -1h1l1 -1h1l1 -1h1l1 -1h1l1 -1h1l1 -1h1l1 -1h1l1 -1h1l1 -1h1l1 -1h1l1 -1h1l1 -1h1l1 -1h1l1 -1h1l1 -1h1l1 -1h1l1 -1h1l1 -1h1l1 -1h1l1 -1h1l1 -1h1l1 -1h1l1 -1h1l1 -1h1l1 -1h1l1 -1h1l1 -1h1l1 -1h1l1 -1h1l1 -1h1l1 -1h1l1 -1h1l1 -1h1l1 -1h1l1 -1h1l1 -1h1
l1 -1h1l1 -1h1l1 -1h1l1 -1h1l1 -1h1l1 -1h1l1 -1h1l1 -1h1l1 -1h1l1 -1h1l1 -1h1l1 -1h1l1 -1h1l1 -1h1l1 -1h1l1 -1h1l1 -1h1l1 -1h1l1 -1h1l1 -1h1l1 -1h1l1 -1h1l1 -1h1l1 -1h1l1 -1h1l1 -1h1l1 -1h1l1 -1h1l1 -1h1l1 -1h1l1 -1h1l1 -1h1l1 -1h1l1 -1h1l1 -1h1l1 -1h1
l1 -1h1l1 -1h1l1 -1h1l1 -1h1l1 -1h1l1 -1h1l1 -1h1l1 -1h1l1 -1h1l1 -1h1l1 -1h1l1 -1h1l1 -1h1l1 -1h1l1 -1h1l1 -1h1l1 -1h1l1 -1h1l1 -1h1l1 -1h1l1 -1h1l1 -1h1l1 -1h1l1 -1h1l1 -1zM449 776q-55 42 -125 47.5t-135 -30.5q-62 -35 -92 -93.5t-28 -112.5q5 0 380 189z
M426 -59h2h208q5 0 6 4q2 7 6.5 18.5t7.5 21t5 17.5q2 6 16 75h-10h-156q-6 0 -9 -6q-27 -67 -72 -124zM662 282q-25 -2 -26 -2h-84h-8q0 -67 -17 -135h153q0 71 -18 137zM640 349l-1 2q-37 92 -105 165q-3 2 -4 2q-7 -2 -35 -11q3 -6 4 -9q30 -69 40 -143q1 -7 8 -7h86
q1 0 7 1zM918 -127h-66q-16 0 -26 9.5t-10 24t10 24.5t25 10h133q16 0 26 -10t10 -24.5t-10 -24t-26 -9.5h-66z" />
    <glyph glyph-name="uniE7AB" unicode="&#xe7ab;" horiz-adv-x="1095" 
d="M464 648q-34 27 -46.5 66.5t-2.5 78t39 64.5q41 38 96.5 36t94.5 -42q26 -27 34.5 -64t-4.5 -74.5t-46 -64.5q30 -6 32 -7q131 -31 227 -130t123 -231q4 -17 10 -65q1 -7 7 -10q30 -12 47 -40t15 -60q-2 -33 -22.5 -58t-52.5 -34q-13 -3 -27 -3h-883q-38 0 -65.5 23
t-34.5 60q-7 35 10 67t51 46q6 2 6 8q8 109 59 197q111 192 327 236q1 0 6 1zM546 77q290 0 436 1h8q14 0 23 10t9 23t-9 23t-21 11q-20 2 -28.5 11t-9.5 29q-3 51 -8 75q-21 107 -91.5 187.5t-171.5 116.5t-208 17q-144 -26 -239 -138t-97 -258q-1 -37 -37 -40
q-19 -1 -27.5 -18.5t2.5 -33.5q10 -16 31 -16h438zM614 757q0 28 -19.5 48t-48 20t-48 -19.5t-19.5 -47.5q-1 -29 19 -49t48 -20t48 20t20 48zM547 -58h505q31 0 37 -28q3 -13 -5 -25t-21 -15h-13h-1007q-31 0 -39 23q-4 15 4 28t23 16q4 1 12 1h504zM535 519h16
q12 -2 20.5 -11t8.5 -21q1 -13 -7 -23t-20 -12q-6 -1 -17.5 -1.5t-17.5 -0.5q-161 -22 -225 -174q-1 -1 -2 -4t-2 -5q-6 -12 -18.5 -17t-25 0t-18 17t-1.5 25q20 58 59 104q82 98 208 119q2 0 42 5v-1z" />
    <glyph glyph-name="uniE7AC" unicode="&#xe7ac;" horiz-adv-x="1095" 
d="M550 892h432q38 0 67 -20.5t40 -55.5q5 -17 5 -33v-617q0 -45 -31 -76.5t-76 -32.5h-5h-865q-40 0 -70 23t-39 61q-3 12 -3 28v611q0 49 31.5 80.5t80.5 31.5h433zM77 312h945v8v458q0 41 -42 41h-861q-42 0 -42 -41v-458v-8zM78 238v-77q0 -11 9 -20t21 -11q5 -1 13 -1
h857h8q16 1 25.5 11.5t9.5 26.5q1 11 0 66v5h-943zM549 -125h-357q-10 0 -15 2q-13 3 -20.5 14t-6 24.5t11 22.5t22.5 10h8h715q11 0 18 -3q12 -4 18.5 -15t4.5 -24t-11.5 -21.5t-22.5 -9.5h-10h-355z" />
    <glyph glyph-name="uniE7AD" unicode="&#xe7ad;" 
d="M684 -26h-342q-5 -18 -5 -19q-12 -39 -46.5 -62.5t-75.5 -19.5q-42 3 -72.5 31.5t-36.5 70.5q0 5 -5 7q-64 29 -64 96v577q0 88 58.5 155t145.5 79q16 3 35 3h474q87 0 153.5 -55.5t81.5 -141.5q3 -19 3 -40v-577q0 -33 -16.5 -58t-46.5 -38q-5 -2 -6 -7
q-5 -42 -37.5 -71.5t-74.5 -30.5q-44 -2 -78.5 25t-43.5 68q0 1 -1 8zM920 383l1 6v264q0 14 -2 26q-10 63 -57.5 104t-112.5 41h-473q-20 0 -37 -4q-59 -13 -96.5 -59t-37.5 -107v-265v-6h815zM853 43h8h24q16 0 26 9.5t10 25.5v231l-1 5h-815v-8v-122v-105q0 -17 10 -26.5
t26 -9.5q5 -1 13 -0.5t13 -0.5h6v-10q0 -43 1 -46q1 -19 15 -32t34 -14q19 0 34 12t17 31q0 3 1 50v9h476v-8v-42q0 -25 18 -40t42 -11q18 4 29.5 18t12.5 33v51zM513 688h-203q-15 0 -25 9.5t-10 24.5q0 14 9 23.5t23 10.5h6h399q7 0 10 -1q14 -2 22 -12.5t6 -24.5
q-1 -13 -10.5 -21.5t-22.5 -8.5h-176h-28zM751 246q28 0 48 -20t20 -48t-20.5 -48t-48.5 -19q-28 0 -47.5 20t-19.5 48t20 47.5t48 19.5zM275 246q29 0 48.5 -20t19.5 -48t-20 -48t-49 -19q-28 0 -47.5 19.5t-19.5 48.5q0 28 20 47.5t48 19.5z" />
    <glyph glyph-name="uniE7AE" unicode="&#xe7ae;" horiz-adv-x="1095" 
d="M548 -125h-431q-60 0 -93 46q-21 27 -21 62v620q0 44 31.5 75t75.5 32h21h850q38 0 67.5 -21t39.5 -57q4 -15 4 -34v-203v-409q0 -40 -23 -69.5t-62 -38.5q-11 -3 -30 -3h-429zM76 347v-8v-352q0 -18 10.5 -28.5t28.5 -10.5h865q19 0 29.5 10.5t10.5 28.5v352v8h-182v-34
q0 -20 -15 -31q-17 -13 -37 -4q-20 10 -20 33q-1 3 -1 36h-435q0 -33 -1 -36q-1 -13 -7 -22q-14 -21 -40 -13q-24 8 -25 34v37h-181zM76 420h944v9v168q0 41 -41 41h-863q-40 0 -40 -41v-168v-9zM548 892h180q41 0 71 -25t37 -65q3 -12 2 -23q-2 -14 -12 -23t-24 -9
q-13 -1 -23.5 8t-12.5 23q0 2 -0.5 6.5t-1.5 7.5q-2 10 -10 17.5t-19 9.5h-11h-352q-39 0 -42 -39q-1 -14 -12 -24t-25 -9q-15 0 -25 10.5t-11 24.5q-1 45 31 77t76 33h184v0z" />
    <glyph glyph-name="uniE7AF" unicode="&#xe7af;" 
d="M73 552h883v8v158q0 38 -38 38h-65q-13 0 -22.5 9t-10.5 22q-1 12 6.5 22.5t19.5 13.5q4 1 10 1h64q45 0 74.5 -30t29.5 -74v-744q0 -44 -30 -73.5t-74 -29.5h-811q-45 0 -74.5 29.5t-29.5 74.5v522v221q0 40 24.5 68.5t63.5 34.5q5 1 38 1h43q14 0 24 -9.5t10 -24.5
q0 -14 -9.5 -24t-24.5 -10h-34h-32q-16 0 -25.5 -9.5t-10.5 -24.5v-165zM956 484h-884v-8v-497q0 -39 39 -39h806q39 0 39 39v497v8zM514 824h66q16 0 26 -10t10 -24.5t-10.5 -24t-25.5 -9.5h-134q-13 0 -22.5 9t-11 21.5t6 23t20.5 13.5q3 1 10 1h65zM752 790v-66
q0 -16 -9.5 -26t-24.5 -10t-24.5 10t-9.5 26v132q0 16 9.5 26t24 10t24.5 -10t10 -26v-66zM344 790v-67q0 -22 -19 -31q-18 -9 -34 2q-15 10 -15 27v138q1 14 10.5 23.5t24 9.5t24 -10t9.5 -25v-67z" />
    <glyph glyph-name="uniE7B0" unicode="&#xe7b0;" horiz-adv-x="1092" 
d="M1090 121v-67q0 -3 -2 -5q-6 -7 -33 -33q-3 7 -13.5 27.5t-16.5 32.5q-5 -27 -5 -29q-4 -21 -24 -29q-22 -9 -81 -33t-91 -37q-1 0 -14 -4q20 -20 22 -21q15 -12 12 -30v-17h-70q5 9 11.5 22t11.5 24t11 22q-77 25 -90 30q-9 3 -17 -2q-17 -12 -80 -54q-32 -21 -54 11
l-66 99q-8 12 -8 26v20v20q0 5 -5 8q-4 2 -12.5 6t-13 6t-9.5 0q-6 -3 -21.5 -11t-24.5 -12q-12 -5 -23 -5h-97q-14 0 -26 7q-33 20 -96.5 58t-72.5 43q-31 19 -15 51q1 1 22 45q-34 34 -45 44q-33 34 -41 42q-19 19 -7 43q7 13 18.5 36.5t15.5 30.5q7 15 22 20q5 1 36 11.5
t47 15.5q7 3 11 10q17 34 24 47q6 11 15 18q21 14 101 67q24 16 46 -2q145 -116 161 -128q6 -6 14 -8q46 -11 110 -27q5 -1 10 0q38 13 68 23q6 2 8 7q3 10 12 37t14 41q4 12 14 23l32 32l-24 12q-19 9 -22 26.5t12 32.5q2 3 7.5 7.5t9 8t5 8t2 9.5t0 12.5t-0.5 10.5v11v11
q1 23 19 32q44 23 71 36q22 10 40 -7l26 -26q19 -19 30 -29q4 -5 10 -5h81q19 0 29 -10t10 -29v-134q-1 -11 -6 -22q-8 -17 -31 -62.5t-35 -70.5q-9 -20 -28.5 -22.5t-32.5 11.5q0 1 -2 3q-3 -4 -7 -10t-7.5 -11.5t-6.5 -9.5q33 -11 40 -14l22 -7q19 -7 23 -25t-9 -33
q-1 0 -16 -14q4 -6 14.5 -22t16.5 -24q21 -32 23 -35q9 -13 6 -29q-8 -50 -27 -160v-3q7 3 28.5 13.5t34.5 17.5zM833 727q23 -11 24 -12q19 -9 22 -26.5t-12 -32.5q-4 -4 -25 -25.5t-32 -32.5q-5 -5 -7 -11q-15 -42 -30 -88q-6 -20 -26 -26q-6 -2 -43 -14.5t-57 -18.5
q-12 -4 -24 -1q-26 6 -73.5 18t-58.5 14q-14 4 -25 13q-24 19 -72 57.5t-73 58.5q-5 4 -11 1q-11 -8 -33 -22.5t-33 -22.5q-4 -3 -7 -8q-16 -30 -27 -53q-8 -17 -25 -23q-14 -4 -58 -19q-3 -1 -10 -2.5t-11.5 -3.5t-7.5 -4.5t-6 -7.5t-5.5 -11t-4.5 -9q-3 -6 2 -11l79 -79
q22 -22 8 -49q-1 -3 -18 -36l3 -2q96 -58 132 -80q4 -2 9 -2h77q6 0 11 3q21 10 56 28q17 8 34 0q11 -6 33.5 -17t34.5 -17q20 -10 20 -33q1 -20 0 -24q-4 -35 19 -64q2 -2 26 -38q1 1 2.5 2t2.5 1.5t2 1.5q58 38 66 43q17 13 38 6q32 -12 84 -28q5 -2 9 0q69 27 137 54
q4 2 5 7q5 30 14.5 86.5t13.5 78.5q1 7 -4 14q0 1 -57 86q-12 18 -3 37l2 3q-48 16 -52 18q-17 6 -22 21.5t4 31.5q2 1 13 18q51 77 57 86q9 13 23.5 15.5t28.5 -7.5l3 -2q35 68 42 83q3 6 3 12v83l-1 8h-67q-17 0 -30 12q-7 8 -22.5 23t-22.5 23q-5 5 -10 2q-9 -5 -17 -9
q-6 -2 -6 -9v-19v-18q1 -19 -11 -31z" />
    <glyph glyph-name="uniE7B1" unicode="&#xe7b1;" horiz-adv-x="1095" 
d="M1023 487q-57 14 -65 15q-175 42 -239 57q-5 1 -9 7q-41 65 -158 251l-5 8l-5 -8q-116 -185 -158 -251q-4 -6 -10 -8q-82 -19 -297 -70l-6 -1q25 -29 26 -30q136 -156 176 -203q4 -4 4 -9q-3 -34 -15 -185q-4 -49 -9 -110v-9l8 3q16 6 122 48.5t161 65.5q18 7 32.5 -1
t16.5 -26q4 -25 -23 -36l-110 -44q-165 -67 -181 -73q-30 -12 -58 2t-34 46q-3 11 -1 32q3 39 19 239v3q0 4 1 6q5 18 -13 38q-42 47 -172 197q-27 30 -15.5 66.5t50.5 45.5q78 19 274 65q8 2 11 7q40 64 146 233q23 35 60 35t59 -35q83 -132 146 -232q4 -6 12 -8l273 -65
q40 -9 51.5 -45.5t-15.5 -66.5q-16 -19 -81.5 -93.5t-100.5 -115.5q-4 -5 -4 -11q2 -21 11 -135t11 -141q1 -14 -8 -24t-22 -12q-14 -1 -24.5 7t-12.5 21q-1 10 -5 63q-1 7 -13 153q-5 74 -7 92q0 5 4 9q47 55 197 227z" />
    <glyph glyph-name="uniE7B2" unicode="&#xe7b2;" horiz-adv-x="1126" 
d="M507 699q-43 29 -48 78.5t28 82.5q31 33 76.5 33.5t76.5 -32.5q21 -22 27 -52t-6 -60.5t-41 -49.5l1 -1l1 -1l1 -1l1 -1l1 -1l1 -1l1 -1l1 -1l1 -1l1 -1v-1l1 -1l1 -1l1 -1l1 -1l1 -1l1 -1l1 -1l1 -1l1 -1l1 -1v-1l1 -1l1 -1l1 -1l1 -1l1 -1l1 -1l1 -1l1 -1l1 -1l1 -1v-1
l1 -1l1 -1l1 -1l1 -1l1 -1l1 -1l1 -1l1 -1l1 -1l1 -1v-1l1 -1l1 -1l1 -1l1 -1l1 -1l1 -1l1 -1l1 -1l1 -1l1 -1v-1l1 -1l1 -1l1 -1l1 -1l1 -1l1 -1l1 -1l1 -1l1 -1l1 -1v-1l1 -1l1 -1l1 -1l1 -1l1 -1l1 -1l1 -1l1 -1l1 -1l1 -1v-1l1 -1l1 -1l1 -1l1 -1l1 -1l1 -1l1 -1l1 -1
l1 -1l1 -1v-1l1 -1l1 -1l1 -1l1 -1l1 -1l1 -1l1 -1l1 -1l1 -1v-1l1 -1l1 -1l1 -1l1 -1l1 -1l1 -1l1 -1l1 -1l1 -1l1 -1v-1l1 -1l1 -1l1 -1l1 -1l1 -1l1 -1l1 -1l1 -1l1 -1l1 -1v-1l1 -1l1 -1l1 -1l1 -1l1 -1l1 -1l1 -1l1 -1l1 -1l1 -1v-1l1 -1l1 -1l1 -1l1 -1l1 -1l1 -1
l1 -1l1 -1l1 -1l1 -1v-1l1 -1l1 -1l1 -1l1 -1l1 -1l1 -1l1 -1l1 -2l1 -1l1 -1l1 -1l1 -1v-1l1 -1l1 -1l1 -1l1 -1l1 -1l1 -1l1 -1l1 -1l1 -1v-1l1 -1l1 -1l1 -1l1 -1l1 -1l1 -1l1 -1l1 -1h1l1 -1v-1l1 -1l1 -1l1 -1l1 -1l1 -1l1 -1l1 -1l1 -1l1 -1l1 -1v-1l1 -1l1 -1l1 -1
l1 -1l1 -1l1 -1l1 -1l1 -1l1 -1l1 -1v-1l1 -1l1 -1l1 -1l1 -1l1 -1l1 -1l1 -1l1 -1l1 -1l1 -1v-1l1 -1l1 -1l1 -1l1 -1l1 -1l1 -1l1 -1l1 -1l1 -1l1 -1v-1l1 -1l1 -1l1 -1l1 -1l1 -1l1 -1l1 -1l1 -1l1 -1l1 -1v-1l1 -1l1 -1l1 -1l1 -1l1 -1l1 -1l1 -1l1 -1l1 -1v-1l1 -1
l1 -1l1 -1l1 -1l1 -1l1 -1l1 -1l1 -1l1 -1l1 -1l8 5q161 106 211 139q16 11 32 6q13 -4 20 -15t5 -24q-8 -45 -25.5 -154t-26.5 -168q-9 -58 -26 -165t-21 -131q-1 -5 -3 -16t-3 -17q-5 -33 -38 -33h-105h-729q-35 0 -41 36q-12 79 -27 166q-3 19 7.5 31.5t29.5 12.5h34h688
q10 0 16 -2q12 -3 19 -13.5t6 -22.5q-2 -13 -10.5 -22t-21.5 -10h-49h-199h-236h-200h-8q9 -55 17 -106h8h766q8 0 10 8q14 95 50 318q7 40 19 114.5t16 98.5v7q-7 -5 -8 -5q-32 -21 -91.5 -60.5t-75.5 -49.5q-30 -20 -54 6q-46 51 -130 143.5t-114 125.5l-5 6
q-4 -5 -11.5 -13.5t-13.5 -15t-12 -12.5q-33 -37 -209 -230q-1 -2 -3 -4q-25 -26 -54 -7q-33 22 -94 62t-74 49l-8 5q4 -21 10 -60q26 -161 29 -183q2 -14 -6.5 -25t-23.5 -14q-14 -2 -25.5 6.5t-13.5 22.5q-3 20 -19 117q-24 151 -31 197q-3 14 0 23q4 17 21 23t32 -5
q8 -4 81 -53q44 -30 140 -93zM564 753q15 0 25 10.5t10 25t-10.5 24.5t-24.5 10q-15 0 -25 -10t-10 -25t10.5 -25t24.5 -10z" />
    <glyph glyph-name="uniE7B3" unicode="&#xe7b3;" 
d="M886 179v9v596q0 40 -40 40h-669q-39 0 -39 -39v-805q0 -39 40 -39h366q15 0 25 -8.5t11 -22.5t-7.5 -25t-22.5 -12h-7h-368q-37 0 -64 20.5t-37 54.5q-3 13 -3 26v816q0 43 29.5 72.5t71.5 29.5h681q41 0 70.5 -29t30.5 -71v-80v-566q0 -29 -19 -49q-139 -139 -205 -204
q-13 -13 -44 -19q-16 -4 -27 6.5t-11 27.5v201q0 30 20 50t50 20h159h9zM716 -21q65 64 132 131h-132v-131zM512 688h201q27 0 35 -22q6 -16 -3.5 -30t-26.5 -16h-7h-397q-10 0 -17 2q-11 4 -17.5 14.5t-4.5 22.5q1 12 9.5 20t20.5 9h10h197zM512 416h-199q-17 0 -26 8
q-18 15 -11 36q7 22 31 24q1 1 5 1h400q30 -1 37 -26q4 -15 -5 -27.5t-24 -14.5q-3 -1 -10 -1h-198zM427 280h120q21 0 30 -19t-4 -35q-10 -13 -29 -13h-193h-41q-16 0 -25.5 9.5t-9.5 24.5q0 14 9.5 23.5t25.5 9.5h117v0z" />
    <glyph glyph-name="uniE7B4" unicode="&#xe7b4;" 
d="M34 383v404q0 41 24.5 69.5t65.5 34.5q4 1 14 1h506q25 0 33 -21q8 -20 -7 -36q-9 -10 -22 -11h-10h-497q-39 0 -39 -39v-805q0 -39 39 -39h669q40 0 40 39v432q0 16 7 25q14 19 36 12q23 -7 25 -31v-6v-435q0 -40 -24.5 -68.5t-63.5 -34.5q-6 -1 -18 -1h-672
q-39 0 -67.5 23t-36.5 58q-2 10 -2 24v405zM987 790q-8 -19 -10 -22l-4 -5q-360 -359 -436 -436q-16 -15 -34 -12q-19 4 -25 22t6 33q1 2 4 5q273 273 437 436q12 13 26.5 13.5t25.5 -11.5q8 -10 9 -23h1zM373 518q-89 0 -101 1q-22 0 -31 19q-8 19 5 36q9 12 25 12h206
q14 0 23.5 -10t9.5 -23.5t-9.5 -23.5t-23.5 -10q-9 -1 -104 -1zM323 382h53q23 -1 30 -23q6 -21 -10 -36q-9 -9 -23 -9h-100q-15 1 -25 10.5t-10 23.5t9.5 24t24.5 10h51v0z" />
    <glyph glyph-name="uniE7B6" unicode="&#xe7b6;" 
d="M527 893q118 -1 235 -67q23 -13 16 -37q-3 -11 -12 -17.5t-20 -5.5q-8 1 -18 6q-71 39 -144 51q-183 28 -330.5 -76.5t-180.5 -282.5q-21 -116 17 -226t124.5 -187t202.5 -102q93 -21 180.5 -2t158.5 65t121 118.5t69 158.5q35 163 -46 312q-8 14 -6 24q3 22 25 26
q24 5 34 -15q29 -59 36 -79q48 -130 23 -265.5t-116 -240.5q-118 -136 -296 -168q-131 -23 -255 20t-212 140t-118 227q-31 135 9.5 264.5t140 222t234.5 123.5q55 13 128 13zM511 339q-1 -2 -11.5 -12t-15.5 -15l-77 -77q-14 -14 -31.5 -9t-22.5 23q-4 18 10 32
q19 19 98 97q0 1 5 6l-5 5l-51 51q-33 33 -47 48q-15 14 -9 32.5t26 21.5q15 3 28 -10l50 -50l47 -47q1 -1 5 -7l6 6l31 31l37 37q16 16 31 30q9 10 21.5 11t22.5 -8q11 -9 11.5 -22.5t-10.5 -24.5l-40 -40q-46 -46 -58 -59q-1 0 -7 -4l7 -7q94 -93 98 -98q14 -14 9.5 -31.5
t-22.5 -22.5t-33 10l-30 30l-36 36l-31 31q0 1 -6 6z" />
    <glyph glyph-name="uniE7BB" unicode="&#xe7bb;" 
d="M1020 384q0 -177 -111.5 -317t-284.5 -179q-136 -31 -268.5 12t-225.5 148q-101 114 -122 264q-18 127 24.5 245.5t135.5 203.5t218 116q195 50 376 -50q12 -7 16 -19.5t-2 -24.5q-7 -12 -19.5 -15.5t-25.5 3.5q-81 46 -166 55q-181 20 -322 -87q-140 -106 -169 -272
q-44 -258 157 -428q91 -77 219 -96q113 -16 218.5 24.5t180 126t97.5 196.5q35 164 -47 311q-9 17 -4 31q8 19 27 20q20 2 31 -16q28 -49 45 -104q22 -72 22 -148zM543 305v-143q0 -24 -23 -31q-23 -6 -35 13q-5 9 -5 18q-1 123 0 286q0 14 9 23t22.5 9t22.5 -9.5t9 -23.5
v-142zM543 591v-17q-1 -13 -9.5 -21.5t-21.5 -9t-22.5 8.5t-9.5 21q-1 18 0 36q0 12 9.5 21t21.5 9q13 0 22 -9t10 -22v-17z" />
    <glyph glyph-name="uniE7BC" unicode="&#xe7bc;" horiz-adv-x="1029" 
d="M549 796h9q9 1 27.5 -0.5t28.5 -0.5q13 3 22.5 -7t10.5 -24q1 -19 4 -92v-7h8q26 -1 27 -2q13 -1 20 -11t7 -23q-1 -12 -9.5 -20.5t-20.5 -9.5h-24q6 -34 6 -36q38 -207 148 -386q4 -7 11 -7q42 1 87 1q12 -1 21.5 -9t10.5 -21t-6 -23t-20 -12q-3 -1 -24 -1h-32l5 -7
q67 -90 149 -164q17 -15 12 -35q-5 -18 -23 -23.5t-32 8.5q-58 57 -93 94q-46 50 -95 122q-3 5 -9 5h-520q-5 0 -9 -5q-79 -118 -186 -215q-17 -15 -35 -9t-21.5 24t10.5 32q54 53 57 56q49 50 94 111q1 1 4 5q-6 1 -7 1h-21h-22q-13 0 -22.5 9.5t-9.5 23t9.5 23t22.5 9.5
q36 1 89 0q6 0 9 6q111 180 149 387q1 6 5 32v4h-19q-15 0 -24.5 9t-9.5 23.5t10 23.5t25 10h26q3 31 3 33q0 13 1 64q1 15 10.5 25.5t22.5 7.5q10 -1 27 0.5t25 0.5h14v8v28q0 24 1 28q0 15 9 25t23 10t23.5 -10t9.5 -25v-34v-28zM739 171l-2 5q-51 100 -54 106
q-65 145 -89 308q-1 9 -10 9h-138l-8 -1q-32 -227 -147 -427h448zM446 665h139q-1 10 -2 31.5t-2 33.5h-132q-2 -35 -3 -65zM512 39q104 -2 166 -68q21 -23 33 -51q5 -13 0 -25t-18 -18q-11 -5 -24 -0.5t-18 15.5q-27 61 -99 77q-75 16 -133 -27q-25 -18 -38 -47
q-6 -13 -18.5 -18.5t-25.5 0.5t-17.5 19t1.5 26q36 78 125 106q15 5 35 8q2 1 31 3z" />
    <glyph glyph-name="uniE7BD" unicode="&#xe7bd;" 
d="M513 620h371q36 0 63.5 -20t36.5 -53q5 -14 5 -33v-467q0 -73 -69 -101q-3 -1 -5 -6q-19 -48 -67.5 -62.5t-89.5 15.5q-23 17 -33 43q-2 5 -7 5h-409q-6 0 -8 -5q-13 -30 -39 -47t-59 -16q-30 1 -55 19.5t-37 47.5q-2 5 -6 7q-32 12 -50 38t-18 59v116v356q0 37 21.5 65
t57.5 37q11 2 28 2h369zM853 9h31q17 0 27 10t10 27v470q0 17 -10 26.5t-27 9.5q-393 1 -742 0q-7 0 -11 -1q-26 -6 -26 -35v-470v-3q1 -15 10 -24t24 -10h16h18q0 -34 1 -36q0 -15 12.5 -24.5t26.5 -6.5q13 2 20.5 11t7.5 22v33h544v-30q0 -16 9.5 -26.5t24.5 -10.5
t24.5 10.5t9.5 25.5v32zM513 824h-133q-17 0 -27 -9.5t-10 -27.5v-31v-31q0 -16 -9.5 -26t-24.5 -10t-24.5 10t-9.5 26v65q0 43 30 72.5t73 29.5h270q43 0 72.5 -29t30.5 -71v-68q0 -15 -9.5 -25t-24.5 -10q-14 -1 -24 9t-10 25v33v31q0 37 -38 37h-132zM683 281v132
q0 29 24 36q15 5 28 -3.5t15 -23.5q1 -4 1 -7v-268q0 -27 -25 -35q-14 -4 -27 4t-15 24q-1 4 -1 11v130zM343 281v-136q0 -18 -14 -28t-31 -4q-21 7 -23 30v5v265q0 18 11 28q16 15 36 7t21 -30v-38v-99z" />
    <glyph glyph-name="uniE7BE" unicode="&#xe7be;" 
d="M302 -58q-11 -28 -32 -45q-40 -33 -91 -19.5t-69 62.5q-2 6 -8 8q-60 25 -66 89q-1 5 -1 12v221v244q0 68 60 98q19 10 47 9h529h214q36 0 63 -21.5t36 -55.5q3 -13 3 -28v-468q0 -74 -68 -100q-4 -2 -6 -7q-12 -30 -37 -48t-57 -19t-57.5 16t-38.5 47q-2 5 -8 5h-408h-5
zM681 282v-135q0 -25 22 -33q17 -7 31.5 3.5t14.5 29.5v169v100q0 25 -22 33q-17 7 -31.5 -3t-14.5 -29v-135zM341 281v131v11q-2 10 -10 18.5t-18 9.5q-17 2 -28.5 -8t-11.5 -27v-269v-2q1 -17 13.5 -26.5t28.5 -5.5q12 2 19 11.5t7 23.5v133zM511 893h133q45 0 75 -29.5
t30 -75.5v-65q0 -13 -8.5 -22.5t-22.5 -10.5q-12 -2 -22 5t-13 19q-2 4 -2 12v30v31q0 38 -38 38h-263q-39 0 -39 -38v-31v-30q0 -29 -25 -35q-16 -4 -29 5t-13 25q-2 52 0 82q4 38 32.5 64t67.5 26h1h136z" />
    <glyph glyph-name="uniE7BF" unicode="&#xe7bf;" 
d="M477 -59v340h-9h-261q-38 0 -66 22.5t-35 60.5q-4 19 1 40q27 105 99 393q0 1 2.5 12.5t4.5 16.5q11 31 37.5 48.5t61.5 17.5h295h103q45 1 73.5 -26.5t34.5 -63.5q2 -15 6 -31t9.5 -37t7.5 -31q73 -290 76 -301q9 -35 -10 -68.5t-54 -46.5q-18 -6 -38 -6h-259h-10v-340
h9h190q9 0 15 -2q11 -3 18 -13.5t5 -22.5q-1 -12 -9.5 -20.5t-21.5 -9.5h-7h-466q-27 0 -36 21q-7 15 1.5 30t26.5 16q3 1 9 1h188h9zM512 349h299h10q15 1 24 13t5 26q-4 16 -26 103.5t-33 134.5q-6 25 -20.5 83t-21.5 89q-2 8 -9 16q-9 10 -29 10h-398h-8
q-12 -1 -20.5 -9.5t-10.5 -19.5q0 -7 -2 -12q-81 -325 -99 -396q-1 -7 1 -16q7 -22 34 -22h304zM716 179v-34q-1 -15 -10.5 -24.5t-23.5 -9.5t-24 9.5t-10 24.5q-1 33 0 67q0 15 10 24.5t24 9.5t23.5 -9.5t10.5 -24.5v-33z" />
    <glyph glyph-name="uniE7C0" unicode="&#xe7c0;" 
d="M605 -61h7h247q15 0 24.5 -9.5t8.5 -23.5q0 -12 -8.5 -20.5t-20.5 -9.5h-9h-342q-26 0 -44 16q-145 136 -230 243q-57 72 -103 171q-44 96 -36 205q9 133 97.5 237t218.5 134q107 25 209.5 -4.5t178 -104.5t105.5 -180q40 -140 -16 -271q-56 -135 -153 -239
q-13 -15 -128 -136q-1 0 -7 -6q0 -1 1 -2zM511 -60q4 3 4 4q95 89 179 183q86 97 138 214q48 110 17 227q-24 92 -89 157.5t-153.5 91t-181.5 2.5q-109 -27 -182.5 -114.5t-80.5 -199.5q-6 -94 33 -175q48 -102 107 -173q77 -92 192 -202q1 -1 17 -15zM225 -124h-61
q-15 0 -25 9t-10 22.5t10 22.5t24 9h126q12 0 21 -8t10 -20t-6 -22t-19 -12q-3 -1 -9 -1h-61zM511 321q-67 0 -113.5 47t-45.5 113q0 66 47.5 112.5t112.5 45.5q66 -1 112 -48t46 -113q-1 -65 -48 -111.5t-111 -45.5zM415 480q0 -40 28.5 -68t68 -27.5t67 28t27.5 67
t-28 67.5t-68 28q-39 0 -67 -28t-28 -67z" />
    <glyph glyph-name="uniE7C1" unicode="&#xe7c1;" horiz-adv-x="1095" 
d="M448 664q-39 45 -36.5 99.5t42.5 92.5q39 37 92 37t93 -36q40 -37 43.5 -92t-36.5 -101q101 -61 105 -179h11q65 2 112 -13q72 -22 125 -75q11 -10 12 -24t-9 -25q-11 -10 -25 -10t-25 11q-71 69 -172 68h-222h-194q-67 0 -80 -2q-119 -13 -179 -114q-31 -51 -33.5 -109
t19 -107.5t66 -87t102.5 -50.5q24 -5 84 -5q4 117 105 178q-43 48 -36 108q6 54 47 89q40 34 92 32.5t90 -38.5q39 -37 41.5 -91t-36.5 -100q49 -28 76.5 -74.5t28.5 -102.5l1 -1q122 -8 199 67q78 78 71 189q-1 14 0 21q3 12 13.5 19t22.5 5.5t21 -10t10 -21.5
q14 -194 -151 -297q-67 -41 -155 -41q-316 -1 -422 -1q-63 0 -86 3q-148 17 -226 144q-41 66 -44.5 142.5t25 141.5t87.5 113.5t136 62.5q30 6 83 5q7 0 7 7q6 109 100 168q1 1 2.5 2t2.5 2zM683 -58v6q-6 75 -70 112q-11 7 -32.5 18.5t-28.5 16.5q-5 2 -10 0
q-10 -6 -30.5 -17.5t-30.5 -17.5q-41 -23 -59 -66q-11 -26 -11 -52h272zM683 486q-4 79 -68 117q-18 10 -64 35q-4 2 -8 0q-43 -23 -64 -35q-51 -30 -64 -87q-1 -2 -5 -30h273zM547 114q49 52 52 56q17 20 16 46.5t-20 45.5t-46 19.5t-47 -16.5q-20 -18 -23 -44.5t14 -47.5
q3 -4 54 -59zM547 658q42 44 47 50q5 5 7 8q19 25 12 55q-4 21 -19.5 36t-36.5 17q-22 3 -41 -6.5t-30 -29.5q-9 -19 -6 -40.5t18 -37.5q4 -4 22 -23q5 -5 15 -15.5t12 -13.5z" />
    <glyph glyph-name="uniE7C2" unicode="&#xe7c2;" 
d="M0 384q0 179 112 319.5t286 179.5q190 43 364 -54q22 -12 18 -35q-4 -22 -28 -25q-10 -2 -22 5q-61 35 -132 49q-100 21 -199 -5t-177.5 -92.5t-119.5 -160.5q-45 -104 -37 -216q10 -137 97.5 -246t219.5 -148q73 -20 143.5 -19t137 26.5t121 66.5t95.5 101t61 131
q51 177 -40 342q-11 21 1 37q10 15 27 14t27 -17q26 -46 43 -99q32 -101 21 -205q-15 -156 -115 -276t-250 -164q-86 -23 -169 -20.5t-160 34.5t-140 82.5t-108 123.5t-65 158q-12 55 -12 113zM640 383q0 -37 32 -55.5t64 0t32 56t-32 56t-64 0t-32 -56.5zM446 383
q0 -26 19 -45t46 -19t45.5 19t18.5 45q0 38 -32 56.5t-64.5 0t-32.5 -56.5zM253 383q0 -37 32.5 -55.5t64.5 0t32 56t-32 55.5q-15 9 -32 9t-32 -9q-33 -18 -33 -56z" />
    <glyph glyph-name="uniE7C3" unicode="&#xe7c3;" 
d="M138 95q-5 4 -24 21t-29 26q-2 1 -9.5 7.5t-11.5 10.5q-28 24 -22.5 58.5t38.5 48.5q66 29 107 55l6 4q-36 33 -40 37q-16 14 -20 34q-5 23 5 42.5t32 29.5q8 4 80 41l5 4q-27 21 -28 22q-31 25 -24 62q6 35 41 48q2 1 13.5 5t17.5 7q23 10 53 24q40 18 86 72q2 2 2 7v21
q0 19 2 29q3 34 29 57.5t62 24.5q34 2 61.5 -20t33.5 -55q2 -11 3 -53q0 -8 6 -16q45 -58 136 -91q20 -7 31 -12q35 -13 41 -49t-24 -61q-1 -1 -30 -23q59 -31 69 -36q3 -1 6 -2.5t6.5 -3t5.5 -2.5q32 -14 37.5 -47.5t-20.5 -57.5q-2 -2 -40 -38l6 -4q39 -25 107 -55
q32 -14 37.5 -48.5t-21.5 -57.5q-1 -2 -9 -8q-11 -11 -34 -30.5t-32 -27.5q8 -5 9 -5q25 -13 45 -23q3 -2 10 -3q35 -10 55 -39.5t16 -64.5q-5 -36 -32 -60t-63 -24h-827q-36 0 -63 23.5t-31.5 59.5t16 65t55.5 40q9 3 19 8l23 12l19 9zM758 586q-6 3 -7 3q-52 21 -54 22
q-66 28 -99 62q-14 14 -51 57q-3 4 -3 10q-1 17 0 55q0 14 -8 23q-14 17 -35 10q-21 -8 -21 -31q-1 -33 0 -51q0 -12 -8 -22q-49 -59 -87 -84q-30 -19 -88 -41q-1 -1 -31 -12l1 -2q43 -33 44 -34q13 -10 17 -15q12 -13 10.5 -27.5t-15.5 -26.5q-1 -1 -10 -6
q-45 -32 -103 -58l-15 -7l3 -3q54 -50 60 -56q8 -8 12 -16q6 -12 3 -24t-14 -19q-55 -35 -85 -51q-4 -3 -69 -34q32 -28 34 -29q10 -9 31 -26t31 -26q4 -3 7 -8q6 -13 3 -28t-15 -24l-2 -2q-10 -19 -35 -32q-20 -10 -57 -28q-3 -2 -8 -2q-12 -2 -19.5 -10.5t-7.5 -19.5
q-1 -15 9 -24.5t25 -9.5h373l6 1v7v52q0 8 2 14q3 11 13 17t22 4q11 -1 18.5 -10t7.5 -21q0 -4 1 -55v-9h8h367h7q13 1 21.5 9.5t9.5 21.5q0 12 -8 21.5t-21 11.5q-4 0 -7 2q-44 22 -59 29q-23 12 -32 31q-1 2 -3 2q-13 7 -15 25q-3 30 17 39q1 0 5 4q45 39 68 59q1 1 17 15
q-1 0 -2 1q-2 1 -3 1q-72 30 -148 81q-19 12 -16 34q2 13 14 25q23 21 59 55l6 4l-8 4q-66 29 -113 63q-10 7 -15 14q-16 20 -1 41q5 7 13 13q6 5 53 41z" />
    <glyph glyph-name="uniE7C4" unicode="&#xe7c4;" horiz-adv-x="1170" 
d="M156 165h-82q-30 0 -38 28q-6 26 20 41q107 64 127 189q3 10 2 37t0 37v31h-38h-37q-30 1 -37 28q-7 26 19 41q71 41 106 114q24 53 23 107v37q1 15 10 25t23 11q13 2 24.5 -6t14.5 -21q0 -3 1 -30v-15h581v35q0 29 28 36q16 4 29 -5t15 -25q0 -5 1 -42q0 -91 58 -162
q29 -35 72 -60q21 -12 18.5 -36.5t-26.5 -30.5q-5 -1 -12 -1h-65h-8l-1 -5q-2 -74 -2 -85q0 -4 1 -9t2.5 -11t2.5 -9q23 -115 126 -175q23 -14 19 -38q-4 -23 -26 -29q-4 -2 -12 -2h-73h-9l5 -8l140 -224q9 -15 6.5 -29.5t-15.5 -22.5q-4 -2 -18 -6h-9h-1076q-11 0 -15 1
q-18 4 -25 21.5t4 33.5q9 15 79 127q6 9 28 44.5t34 54.5q0 1 5 8zM106 -52h442v8v61q1 14 8 24q13 22 39 14q25 -8 26 -36v-31v-32v-8h442q-4 7 -5 8q-98 158 -126 202q-4 7 -13 7h-669q-9 0 -13 -7q-23 -37 -126 -202q-1 -1 -1.5 -2.5t-1.5 -3t-2 -2.5zM919 382h-670
q-18 -80 -74 -144h819q-55 64 -75 144zM883 746h-597q-19 -81 -75 -145h747q-56 64 -75 145zM258 457h653v70h-653v-70z" />
    <glyph glyph-name="uniE7C5" unicode="&#xe7c5;" horiz-adv-x="1049" 
d="M76 441q45 -12 49 -13q253 -63 359 -89q7 -2 9 -9q18 -73 101 -407q5 -18 -3 -31t-25 -15q-14 -2 -24.5 5.5t-14.5 22.5q-5 22 -15 62t-14 54q-51 205 -63 251q-1 8 -9 9q-163 41 -367 92q-24 6 -38.5 23t-16.5 41q-1 22 11 41t34 28q173 74 569 241q275 116 332 140
q30 13 58.5 -1t36.5 -46q6 -22 -4 -45q-3 -7 -119 -282q-102 -242 -173 -409q-11 -26 -35 -24q-18 1 -27.5 16t-3.5 32q4 8 31 71q27 68 81 194t97.5 228.5t81.5 193.5l3 9q-451 -193 -901 -382v-1z" />
    <glyph glyph-name="uniE7C6" unicode="&#xe7c6;" 
d="M71 349v371q0 40 24 69t64 34q20 3 53 1q13 -1 21 -11.5t7.5 -23.5t-10 -22.5t-22.5 -9.5h-16h-17q-17 0 -26.5 -10t-9.5 -27v-742q0 -17 10 -27t26 -10h674q18 0 27.5 10t9.5 28v204v534q0 17 -7 26q-10 13 -26 14h-17h-17q-15 0 -25 9.5t-10 23.5t10 24t24 10
q46 0 58 -3q33 -7 55 -33.5t23 -61.5v-8v-739q0 -67 -60 -97q-18 -9 -42 -9h-679q-43 0 -72.5 30t-29.5 73v373zM513 689h-133q-32 0 -51.5 19.5t-19.5 51.5v62q0 31 19.5 50.5t50.5 19.5h267q31 0 50.5 -19.5t19.5 -49.5v-66q0 -28 -19 -48t-48 -20h-136v0zM648 824h-271
v-67h271v67zM512 281h-199q-17 0 -27 8q-16 15 -10 35.5t28 23.5q3 1 7 1h402q18 0 28 -10.5t9 -26.5q-1 -11 -8.5 -19.5t-18.5 -10.5q-5 -1 -13 -1h-198zM512 111h-203q-22 0 -31 19t4 36q10 13 28 13h94h310q16 0 26 -9.5t10 -24.5q0 -14 -9.5 -24t-23.5 -10h-77h-128z
M445 519h135q17 0 27 -13t6 -29q-2 -12 -11.5 -19t-21.5 -7h-90h-181q-18 0 -28 14.5t-4 31.5q8 22 33 22h135z" />
    <glyph glyph-name="uniE7C8" unicode="&#xe7c8;" horiz-adv-x="1095" 
d="M588 491h-435v-9v-135q0 -19 -15 -30t-33 -5q-25 8 -25 36v238v85q0 82 51 142.5t131 74.5q85 15 158 -34.5t91 -134.5q4 -18 5 -44q0 -16 -10 -27t-26 -11q-15 0 -25.5 10.5t-11.5 26.5q-1 51 -31 89t-78 51q-64 16 -119 -22t-61 -103q0 -7 -1 -109v-15h435v9
q1 106 1 113q3 72 53 129t122 71q88 16 161.5 -31.5t93.5 -135.5q4 -19 5 -45q1 -16 -9.5 -27t-25.5 -11t-26 10t-11 26q-3 81 -68 123q-32 20 -69.5 22t-68.5 -12.5t-54.5 -44t-28.5 -66.5q-2 -12 -2 -28v-317q0 -32 -28 -39q-15 -4 -28.5 5.5t-15.5 25.5v12q-1 26 -1 128
v9zM189 -127q-93 3 -168 55q-21 15 -15 39q6 25 32 28q13 1 27 -8q60 -42 132 -40q39 2 76 18l8 4q131 85 276 26q7 -3 19 -10q95 -62 199 -23q7 3 14 8q136 86 282 23q19 -9 22.5 -28.5t-11.5 -33.5q-18 -15 -41 -4q-48 21 -99 19q-60 -2 -107 -34q-35 -23 -85 -32
q-115 -21 -216 45q-21 14 -61 19q-84 12 -156 -38q-23 -16 -67 -24q-4 -1 -61 -9zM1094 216q0 -22 -16 -33t-35 -3q-38 14 -56 17q-82 15 -151 -30q-36 -24 -84 -33q-113 -21 -210 41q-29 18 -71 24q-82 10 -153 -38q-27 -18 -74 -27q-119 -22 -220 47q-15 10 -18.5 24.5
t5.5 28t24 15.5t30 -8q96 -64 203 -24q5 2 12 6q134 86 279 26q6 -3 17 -10q95 -62 200 -22q6 2 13 7q135 86 282 23q22 -10 23 -31z" />
    <glyph glyph-name="uniE7C9" unicode="&#xe7c9;" 
d="M512 -61q159 0 282.5 101t153.5 257q32 160 -48 305q-8 13 -6 24q5 22 26 26q23 4 33 -15q21 -41 29 -61q45 -106 38 -219q-13 -208 -166 -349q-109 -100 -256 -125q-171 -29 -321.5 50t-224.5 233q-54 114 -48 243q7 169 116.5 300.5t273.5 169.5q193 45 368 -52
q14 -8 17.5 -22.5t-6.5 -26.5q-17 -21 -41 -7q-44 24 -89 39q-126 39 -255.5 1.5t-214.5 -138.5q-86 -102 -102 -227q-26 -206 111 -360q100 -112 251 -140q4 0 79 -8v1zM512 353h-188q-25 0 -33 21q-5 15 3.5 28t24.5 14h7h372q9 0 15 -2q11 -3 16.5 -12.5t4.5 -21.5
q-1 -11 -9.5 -18.5t-19.5 -8.5h-8h-185z" />
    <glyph glyph-name="uniE7CE" unicode="&#xe7ce;" 
d="M514 382zM116 382q0 108 53.5 199.5t145 145t199.5 53.5t199.5 -53.5t144.5 -145t53 -199.5t-53 -199.5t-144.5 -144.5t-199.5 -53t-199.5 53t-145 144.5t-53.5 199.5zM614 382q0 -28 25 -42.5t49.5 0t24.5 43t-24.5 43t-49.5 0t-25 -43.5zM465 382q0 -20 14.5 -35
t35 -15t35 15t14.5 35q0 29 -25 43.5t-50 -0.5q-24 -14 -24 -43zM315 382q0 -28 25 -42.5t50 0t25 43t-25 43t-50 0t-25 -43.5z" />
    <glyph glyph-name="uniE7CF" unicode="&#xe7cf;" 
d="M832 566l-685 250v-911q0 -14 -9.5 -23.5t-23 -9.5t-23.5 9.5t-10 23.5v958q0 14 10 23.5t23 9.5q8 0 16 -4l772 -281q7 -2 12 -7q14 -4 21 -16t3.5 -25t-15.5 -20l-654 -378q-14 -8 -29 -2q-11 2 -19 11t-8 21v286q0 13 9.5 23t23.5 10t23.5 -10t9.5 -23v-234z" />
    <glyph glyph-name="uniE7D0" unicode="&#xe7d0;" 
d="M512 384zM0 384q0 139 68.5 257t186.5 186.5t257 68.5t257 -68.5t186.5 -186.5t68.5 -257t-68.5 -257t-186.5 -186.5t-257 -68.5t-257 68.5t-186.5 186.5t-68.5 257zM591 137l-39 38l-94 94l-133 133v-36l221 221l45 44q7 8 7 18.5t-7.5 18t-18 7.5t-17.5 -7l-45 -45
l-221 -221q-7 -7 -7 -18t7 -18l133 -133l94 -94l39 -39q7 -7 17.5 -7t18 7.5t7.5 18t-7 18.5z" />
    <glyph glyph-name="uniE7D2" unicode="&#xe7d2;" horiz-adv-x="1125" 
d="M1115 583q-40 57 -114.5 162.5t-92.5 132.5q-11 17 -29 17h-337h-21h-306q-14 0 -23 -10h-1v-1q-3 -2 -5 -6q-27 -43 -88 -142.5t-93 -152.5q-12 -19 3 -38l2 -2q90 -116 262 -336t253 -323q10 -13 25 -11q12 0 22 11q75 92 171.5 210.5t195 238t171.5 210.5q1 1 2 3
q16 19 3 37v0zM1023 600h-205q11 30 34.5 94t35.5 97q22 -32 67 -96t68 -95v0zM548 813q39 -57 146 -213h-296q98 139 150 213v0zM723 533q-133 -362 -174 -475q-105 297 -172 475h346v0zM757 625q-51 75 -139 203h213q-13 -35 -37.5 -102.5t-36.5 -100.5v0zM340 633
q-39 102 -76 195h214q-64 -90 -138 -195v0zM209 788q35 -90 73 -188h-189q54 87 116 188v0zM307 533q68 -184 177 -490q-211 271 -383 490h206v0zM794 533h223q-84 -102 -405 -495q40 109 182 495v0z" />
    <glyph glyph-name="uniE7D6" unicode="&#xe7d6;" 
d="M309 620v67q0 35 11 68q22 64 78.5 102t123.5 35q74 -4 127.5 -52t64.5 -121q2 -11 3 -35v-64h8h127q37 0 65.5 -23t34.5 -58q1 -4 10 -71q0 -5 7.5 -63.5t11.5 -88.5q2 -23 19 -152q17 -139 19 -153q5 -43 1 -59q-8 -34 -35 -56t-62 -23h-5h-810q-34 0 -60.5 18
t-38.5 49q-8 23 -4 55q1 9 21 166q3 25 10.5 84t11.5 90q4 30 10.5 85.5t9.5 78.5q5 35 5 40q8 35 36 58t65 23h126h9zM513 -59h401h11q14 2 22.5 12.5t6.5 24.5q-1 12 -3 26t-4 31t-3 26l-19 152q-2 17 -6 48t-7 56.5t-6 47.5q-18 143 -19 151q-2 19 -11.5 27.5t-28.5 8.5
h-183h-150h-171h-83h-83q-12 0 -22 -6q-14 -7 -16 -30q-6 -45 -21 -165q-4 -31 -11.5 -93t-11.5 -93q-3 -27 -11 -89.5t-12 -96.5q-2 -18 12 -31q9 -7 26 -7h403zM649 621v66q0 60 -41.5 99.5t-101.5 37.5q-47 -2 -83.5 -33.5t-42.5 -77.5q-2 -13 -2.5 -30t0 -30.5
t-0.5 -30.5l1 -1h271zM411 417q0 -29 -20 -48.5t-48 -19.5t-48 19.5t-20 47.5t19.5 48t48.5 21q28 0 48 -20t20 -48zM751 417q0 -28 -20 -48t-48 -20q-28 -1 -48 19t-20 48t19.5 48t48 20.5t48.5 -19.5t20 -48z" />
    <glyph glyph-name="uniE7D7" unicode="&#xe7d7;" horiz-adv-x="1039" 
d="M599 756h348q24 0 43 -6q24 -8 36.5 -27.5t9 -44.5t-15.5 -68q-19 -71 -54.5 -200.5t-45.5 -163.5q-1 -3 -1.5 -10t-1.5 -9q-7 -36 -35 -59t-64 -23q-293 -1 -545 0q-39 0 -67 25.5t-34 63.5q-2 13 -17 67q-14 52 -151 544q-5 18 3.5 31.5t25.5 15.5q12 1 22 -6t14 -20
q3 -13 39 -142q97 -348 129 -463q1 -4 3 -18q4 -28 33 -30q1 -1 6 -1h534q31 0 37 27q18 73 21 85q18 65 51.5 185.5t41.5 151.5q0 1 4 20q1 6 -5 6q-2 0 -10 0.5t-12 0.5h-698q-32 0 -37 29q-2 15 7.5 26.5t23.5 12.5h9h353zM240 -22q2 44 33.5 72.5t73.5 26.5
q43 -3 70.5 -34.5t25.5 -74.5q-2 -40 -33.5 -68.5t-72.5 -26.5q-42 2 -70.5 33t-26.5 72zM308 -25q0 -14 9.5 -24t24.5 -10q13 0 23 9.5t10.5 23.5t-9.5 24.5t-24 10.5t-24 -10t-10 -24zM851 -25q0 -43 -30 -72.5t-72 -29.5t-71.5 30t-29.5 72t29.5 72t72.5 30
q42 0 71.5 -30t29.5 -72zM783 -25q0 14 -10 24t-24 10t-24 -10.5t-10 -24.5q1 -13 10.5 -23t23.5 -10t24 10t10 24z" />
    <glyph glyph-name="uniE7D8" unicode="&#xe7d8;" horiz-adv-x="1065" 
d="M747 839q26 27 59 42q41 19 84 14.5t79 -24t60.5 -55.5t29.5 -80q2 -12 2 -23v-800q0 -18 -12 -29t-30 -9q-12 1 -21 10.5t-10 22.5v10v792q0 39 -21.5 68.5t-56.5 39.5q-31 9 -62 0t-51 -33q4 -6 5 -7q48 -75 38.5 -164.5t-72.5 -152.5q-22 -22 -52 -22.5t-53 22.5
l-256 256q-23 23 -22.5 53t23.5 53q67 66 161 72.5t169 -49.5q2 -1 5 -3.5t4 -3.5zM717 512q77 85 42 187q-37 109 -153 123q-84 10 -148 -52q44 -43 259 -258zM350 -53q-23 0 -39 16t-16 38q0 24 16 40t39 16q22 0 38 -16t16 -39t-16 -39t-38 -16zM222 586q0 23 16 39
t38.5 15.5t38.5 -16.5t16 -38.5t-16 -38.5t-39 -16t-38.5 16t-15.5 39zM568 239q-22 0 -38.5 16.5t-16 39t16.5 38.5t38.5 15.5t38.5 -16.5t16 -39q0 -22 -16 -38t-39 -16zM514 148q-1 -23 -17 -39t-38.5 -16t-38.5 16.5t-16 39t16.5 38.5t39 15.5t38.5 -16.5t16 -38z
M167 494q22 0 38.5 -15.5t16.5 -37.5q0 -23 -16 -39.5t-39 -16.5q-22 0 -38 16t-16.5 38.5t15.5 38.5t39 16zM205 203q22 -1 38 -17t15 -38q0 -24 -16.5 -40t-39.5 -15q-22 1 -38 17t-15 39q0 22 16.5 38t39.5 16zM258 295q1 22 17 38t39 16q23 -1 38.5 -17t15.5 -39
q-1 -23 -17 -38.5t-39 -15.5q-23 1 -38.5 17t-15.5 39zM477 440q0 -23 -16 -39t-38.5 -16t-38.5 16.5t-16 39t16 38.5t39 15.5t38.5 -16.5t15.5 -38zM57 239q-22 0 -38 16t-16 39t16 39t39 15.5t38.5 -16.5t15.5 -39q0 -22 -16 -38t-39 -16z" />
    <glyph glyph-name="uniE7D9" unicode="&#xe7d9;" 
d="M354 364q-49 3 -51 4q-170 29 -217 191q-17 55 -7.5 109t36 99t72 77.5t100.5 43.5q72 15 140.5 -9t115.5 -79.5t58 -128.5q2 -9 4 -49q0 -5 4 -8q12 -7 17 -13q58 -76 236 -306q82 -107 92 -120q16 -22 14.5 -46.5t-20.5 -43.5q-5 -5 -6 -5q-4 -4 -1 -9q21 -55 24 -93
q1 -12 -1 -27t-15 -28q-39 -36 -75 -46q-41 -11 -91 3q-14 5 -118 38q-109 35 -215 45q-89 8 -146 3q-99 -8 -196 -58q-27 -14 -43 7q-10 13 -7 28t18 23q39 21 92 39q95 31 200 29q181 -4 369 -70q29 -10 80 -23q42 -11 80 25q3 3 2 6q-2 11 -10 53l-6 -5
q-19 -18 -43 -19.5t-45 14.5q-29 22 -177 136q-205 158 -247 190q-15 12 -17 23zM539 629q-1 83 -59 141t-141 57q-81 0 -139 -58.5t-58 -139.5q0 -82 58 -140t140 -58t140.5 58t58.5 140zM430 380q66 -50 201 -154.5t204 -157.5q11 10 33 32.5t34 34.5l-1 1l-1 1l-1 1v1
l-1 1l-1 1l-1 1l-1 1v1l-1 1l-1 1l-1 1v1l-1 1l-1 1l-1 1v1l-1 1l-1 1l-1 1l-1 1v1l-1 1l-1 1l-1 1v1l-1 1l-1 1l-1 1v1l-1 1l-1 1l-1 1l-1 1v1l-1 1l-1 1l-1 1v1l-1 1l-1 1l-1 1v1l-1 1l-1 1l-1 1l-1 1v1l-1 1l-1 1l-1 1v1l-1 1l-1 1l-1 1v1l-1 1l-1 1l-1 1l-1 1v1l-1 1
l-1 1l-1 1v1l-1 1l-1 1l-1 1v1l-1 1h-1l-1 1l-1 1v1l-1 1l-1 1l-1 1v1l-1 1l-1 1l-1 1v1l-1 1l-1 1l-1 1v1l-1 1l-1 1l-1 1l-1 1v1l-1 1l-1 1l-1 1v1l-1 1l-1 1l-1 1v1l-1 1l-1 1l-1 1l-1 1v1l-1 1l-1 1l-1 1v1l-1 1l-1 1l-1 1v1l-1 1l-1 1l-1 1l-1 1v1l-1 1l-1 1l-1 1v1
l-1 1l-1 1l-1 1v1l-1 1l-1 1l-1 1l-1 1v1l-1 1l-1 1l-1 2l-1 1l-1 1v1l-1 1l-1 1l-1 1l-1 1v1l-1 1l-1 1l-1 1v1l-1 1l-1 1l-1 1v1l-1 1l-1 1l-1 1v1l-1 1l-1 1l-1 1l-1 1v1l-1 1l-1 1l-1 1v1l-1 1l-1 1l-1 1v1l-1 1l-1 1l-1 1l-1 1v1l-1 1l-1 1l-1 1v1l-1 1l-1 1l-1 1v1
l-1 1l-1 1l-1 1l-1 1v1l-1 1l-1 1l-1 1v1l-1 1l-1 1l-1 1v1l-1 1l-1 1l-1 1v1l-1 1l-1 1l-1 1l-1 1v1l-1 1l-1 1l-1 1v1l-1 1l-1 1l-1 1v1l-1 1l-1 1l-1 1l-1 1v1l-1 1l-1 1l-1 1v1l-1 1l-1 1l-1 1v1l-1 1l-1 1l-1 1l-1 1v1l-1 1l-1 1l-1 1v1l-1 1l-1 1l-1 1v1l-1 1l-1 1
l-1 1v1l-1 1l-1 1l-1 1l-1 1v1l-1 1l-1 1l-1 1v1l-1 1l-1 1l-1 1v1l-1 1l-1 1l-1 1l-1 1v1l-1 1l-1 1l-1 1v1l-1 1l-1 1l-1 1v1l-1 1l-1 1l-1 1l-1 1v1l-1 1l-1 1l-1 1v1l-1 1l-1 1l-1 1v1l-1 1l-1 1l-1 1l-1 1v1l-1 1l-1 1l-1 1v1l-1 1l-1 1l-1 1v1l-1 1l-1 1l-1 1l-1 1v1
l-1 1l-1 1l-1 1v1l-1 1l-1 1l-1 1v1l-1 1l-1 1l-1 1v1l-1 1l-1 1l-1 1l-1 1v1l-1 1l-1 1l-1 1v1l-1 1l-1 1l-1 1v1l-1 1l-1 1l-1 1l-1 1v1l-1 1l-1 1l-1 1v1l-1 1l-1 1l-1 1v1l-1 1l-1 1l-1 1l-1 1v1l-1 1l-1 1l-1 1v1l-1 1l-1 1l-1 1v1l-1 1l-1 1l-1 1l-1 1v1l-1 1l-1 1
l-1 1v1l-1 1l-1 1l-1 1v1l-1 1l-1 1l-1 1l-1 1v1l-1 1l-1 1l-1 1v1l-1 1l-1 1l-1 1v1l-1 1l-1 1l-1 1l-1 1v1l-1 1l-1 1l-1 1v1l-1 1l-1 1l-1 1v1l-1 1l-1 1l-1 1l-1 1v1l-1 1l-1 1l-1 1v1l-1 1l-1 1l-1 1v1l-1 1l-1 1l-1 1l-1 1v1l-1 1q-45 -115 -160 -160zM572 364
q0 22 19 30q20 10 36 -5q33 -32 68 -69q10 -9 9.5 -22t-10 -22.5t-22.5 -10t-23 8.5l-69 69q-8 8 -8 21z" />
    <glyph glyph-name="uniE7DA" unicode="&#xe7da;" 
d="M511 -125q-178 1 -316.5 111.5t-178.5 284.5q-31 133 8.5 261.5t137 221.5t229.5 124q194 46 370 -51q25 -14 18 -38q-4 -11 -13 -17.5t-20 -5.5q-8 1 -17 6q-72 40 -148 51q-182 27 -328 -77q-147 -106 -179 -283q-21 -116 16.5 -224.5t121 -184.5t195.5 -103
q116 -28 229 5t195 117t112 200q43 170 -43 328q-7 13 -6 22q2 24 25 28q23 5 34 -15q23 -39 38 -82q29 -83 29.5 -170t-27.5 -164.5t-77 -144t-121 -114.5t-158 -70q-61 -16 -126 -16zM448 299q5 8 6 8q29 30 105.5 106t117.5 118q15 15 32 11q18 -4 23.5 -21t-6.5 -30
q-1 -2 -5 -6l-247 -247q-26 -26 -52 0l-123 123q-13 13 -9 30.5t22 22.5t33 -9q15 -16 48 -48.5t50 -49.5z" />
    <glyph glyph-name="uniE7DB" unicode="&#xe7db;" 
d="M105 7q-36 9 -37 9q-29 11 -46.5 36.5t-18.5 56.5q0 197 1 276q0 61 60 91q6 3 8 8q25 55 66 149q2 4 4 12q9 34 36.5 55.5t62.5 21.5h544q36 0 63.5 -22t35.5 -57q1 -5 3 -9q44 -99 67 -151q3 -5 8 -7q58 -29 60 -91q1 -10 1 -106v-165q0 -38 -21.5 -66t-57.5 -37
q-1 0 -23 -3q-2 -67 -53 -107q-38 -30 -87 -28q-55 2 -93.5 41t-39.5 94h-271q-2 -70 -57 -110q-37 -27 -83 -25q-55 2 -93 41q-37 38 -39 93zM853 77h20h23h20q39 0 39 38v263q0 39 -39 38q-7 0 -9 6q-13 29 -86 193q-2 4 -2 6q-4 19 -13 26t-28 7h-530h-8q-13 0 -22 -8.5
t-11 -21.5q0 -4 -2 -8q-9 -22 -26.5 -61t-32 -71.5t-27.5 -61.5q-2 -6 -9 -6q-39 1 -39 -39v-118v-146q0 -17 10 -26.5t26 -9.5h44h22v-9q0 -58 1 -62q0 -27 20 -46.5t48 -18.5q28 0 47.5 19.5t19.5 47.5v61v7h408v-8v-58q0 -40 33.5 -60t67.5 -0.5t35 58.5v69zM514 892
q73 0 77 -1q39 -2 65.5 -32t26.5 -69q0 -14 -10 -24t-23 -10q-14 0 -24 9t-11 23q-3 36 -39 36h-126q-36 0 -39 -36q-1 -14 -11.5 -23t-23.5 -9q-14 1 -23.5 11t-9.5 25q0 41 30 70.5t73 29.5h68v0zM513 349h-236q-16 0 -26 10t-10 25q1 13 10 22t22 10h4h472q15 0 24.5 -8
t11 -22t-7.5 -25t-23 -12h-9h-232zM853 213q0 -28 -20 -48t-48 -20t-48 20t-20 48t20 47.5t48 20t48 -19.5t20 -48zM309 212q0 -28 -20 -48t-48 -19q-28 0 -48 20t-20 48t20 48t48.5 19.5t48 -20t19.5 -48.5z" />
    <glyph glyph-name="uniE7DC" unicode="&#xe7dc;" 
d="M868 42l6 -7l104 -104q15 -15 9.5 -34t-25.5 -24q-18 -4 -33 11q-18 19 -70.5 71t-80.5 81q-7 6 -16 6h-498q-9 0 -15 -6l-81 -82l-71 -70q-15 -15 -33 -11q-19 4 -25 22.5t7 33.5l19 19q13 13 42 42.5t45 44.5l7 7h-19q-36 1 -63.5 22.5t-35.5 55.5q-3 13 -3 27
q-1 359 0 504q0 87 52 152t135 83q24 5 52 5q311 1 477 0q89 0 155.5 -59.5t77.5 -148.5q2 -16 2 -33v-501q0 -37 -19.5 -64.5t-52.5 -37.5q-6 -2 -31 -5h-18zM513 110h371q17 0 27 9.5t10 26.5v509q0 70 -49.5 119.5t-120.5 49.5h-475q-19 -1 -35 -4q-61 -13 -98 -59.5
t-37 -109.5v-503q0 -38 37 -38h115h255zM514 -26h202q29 0 34 -28q3 -15 -6.5 -27t-24.5 -13h-2h-407q-13 0 -22 7.5t-12 20.5q-3 15 6.5 27.5t25.5 12.5h52h154zM513 722h201q32 0 37 -29q2 -14 -6 -25t-22 -13q-4 -1 -10 -1h-399q-31 0 -37 26q-4 16 6 28.5t28 13.5h46
h156zM343 382q0 -28 -20 -48t-47 -20q-29 0 -49 20t-19 49q0 27 20 47t48 20t47.5 -20t19.5 -48zM683 382q0 28 20 48t48.5 20t48 -20t19.5 -49q0 -27 -20 -47t-48 -20t-48 20t-20 48z" />
    <glyph glyph-name="uniE7DD" unicode="&#xe7dd;" horiz-adv-x="1061" 
d="M334 664q3 -189 22 -335q37 18 39 19q53 23 120 16q59 -7 102 -31q11 -6 21 -14q5 -3 11 -1q50 25 104 38q53 14 125 8q79 -6 142 -28q10 -4 17 -7q13 -6 17.5 -18t-0.5 -25q-6 -12 -18 -17t-24 -1q-74 30 -174 32q-60 2 -130 -28q-4 -2 -70 -34q-1 -1 -4 -2l-2 -1
q-72 82 -191 59q-25 -4 -68 -34q-20 -13 -31 -16q-17 -6 -29.5 2.5t-15.5 25.5q-11 79 -13 110q-7 90 -13 199q-1 20 -2 110q-1 4 3 8q39 41 94 27q3 -1 8.5 -2.5t6.5 -1.5q29 -7 45 -24q3 -2 39 -34q79 64 81 65q-1 0 -2 3l-3 5q-35 58 -41 68q-4 5 -10 6q-16 3 -46 8.5
t-39 7.5q-5 1 -9 0q-90 -19 -155 -32q-6 -2 -8 -6q-92 -191 -131 -352q-18 -73 -26 -166q-9 -102 -6 -195q1 -7 6 -10q122 -65 246 -88q120 -22 250 21q80 27 153 68q4 2 7 1q81 -32 128 -73q35 -31 56 -63q10 -17 7 -30q-5 -21 -25 -25q-23 -5 -34 14q-42 66 -126 103
q-5 2 -10 0q-92 -48 -187 -72q-136 -35 -285 3q-114 30 -216 86q-34 19 -35 58q-5 108 7 231q15 151 74 312q40 108 88 207q16 33 52 40q69 14 159 33q13 3 49 -4l73 -13q30 -5 45 -31q29 -46 50 -81q13 -22 8.5 -46t-24.5 -40q-37 -30 -79 -64q-20 -15 -43.5 -14.5
t-42.5 16.5q-29 25 -39 35q-7 6 -22 9q-2 1 -26 5z" />
    <glyph glyph-name="uniE7DE" unicode="&#xe7de;" 
d="M953 348v-372q0 -37 -22 -64.5t-57 -36.5q-11 -2 -27 -2h-335h-336q-40 -1 -68.5 23t-35.5 59q-2 10 -2 22v743q0 44 29.5 74t73.5 30h32q15 0 25 -10t10 -24t-10 -23.5t-25 -10.5h-15h-14q-18 0 -28 -10t-10 -28v-227v-512q0 -32 27 -37q3 -1 9 -1h675q17 0 26.5 10
t9.5 27v741q0 17 -9.5 27t-27.5 10h-15h-15q-15 1 -25 10.5t-9.5 24t10 24t24.5 9.5q41 0 53 -2q37 -7 59.5 -35t22.5 -66v-373zM464 416l-7 7q-17 18 -52 52.5t-52 51.5q-15 16 -9 35q5 19 25 23q18 4 32 -10q19 -18 53.5 -53t51.5 -51l6 -8l5 7q18 18 52.5 53t51.5 52
q15 14 33 11q19 -4 25 -23t-8 -34q-3 -4 -30 -31q-55 -54 -75 -75l-7 -4q1 -1 2 -3h7h79q25 0 32.5 -22.5t-10.5 -37.5q-10 -8 -25 -8h-90h-8v-68h8h94q13 0 22.5 -8.5t10.5 -21.5q2 -13 -5.5 -23.5t-20.5 -13.5h-11h-90h-8v-9v-92q-1 -20 -17 -30.5t-33 -0.5q-19 9 -19 32
q1 8 1 91v9h-9h-95q-12 0 -21 8t-11 21q-2 11 4.5 21.5t17.5 14.5q6 2 15 2h90h8v68h-8h-92q-18 1 -28.5 14t-5.5 30q7 24 34 24h77h10zM511 688h-131q-33 0 -52.5 20t-19.5 52v63q0 30 19.5 49.5t49.5 19.5h268q31 0 50.5 -19.5t19.5 -50.5v-63q0 -31 -19.5 -51t-50.5 -20
h-134zM647 824h-271v-67h271v67z" />
    <glyph glyph-name="uniE7E0" unicode="&#xe7e0;" horiz-adv-x="1120" 
d="M3 644q0 21 13 33q129 120 292 174q153 50 312 38q274 -22 480 -211q25 -22 10 -47q-9 -15 -26 -17.5t-31 9.5q-69 57 -89 71q-141 97 -308 118q-334 41 -587 -185q-21 -18 -40 -13q-11 4 -18.5 12.5t-7.5 17.5zM559 -125q-90 -1 -154 63t-64 154t63.5 154t152.5 64
q91 0 155 -63t64.5 -153.5t-63 -154.5t-154.5 -64zM704 92q0 60 -42.5 103t-102.5 43t-102.5 -43t-42.5 -103t42.5 -102.5t102.5 -42.5t102.5 43t42.5 102zM558 601q213 -4 362 -151q17 -18 10 -39q-6 -21 -29 -25q-18 -3 -33 12q-41 42 -90 71q-112 65 -240 58
q-167 -8 -288 -128q-16 -16 -33 -13q-22 4 -29 24q-8 21 8 38q35 36 77 64q110 75 242 87q2 0 43 2z" />
    <glyph glyph-name="uniE7E1" unicode="&#xe7e1;" 
d="M514 834q-92 0 -176 -35.5t-144.5 -96t-96 -144.5t-35.5 -176t35.5 -175.5t96 -144.5t144.5 -96.5t176 -35.5t175.5 35.5t144.5 96.5t96.5 144.5t35.5 175.5t-35.5 176t-96.5 144.5t-144.5 96t-175.5 35.5zM585 601q0 9 6 15t15 6t15 -6t6 -15v-42q0 -9 -6 -15.5
t-15 -6.5t-15 6.5t-6 15.5v42zM415 594h155v-42h-155v42zM359 601q0 9 6 15t15 6t15 -6t6 -15v-42q0 -9 -6 -15.5t-15 -6.5t-15 6.5t-6 15.5v42zM309 198h177q8 0 14.5 -6t6.5 -15t-6 -15t-15 -6h-177q-21 0 -35 14.5t-14 34.5v340q0 20 14 34.5t34 14.5h30v-43h-30
q-6 0 -6 -6v-51q2 1 7 1h368q1 0 3 -0.5t4 -0.5v52q0 6 -7 6h-30v42h30q21 0 35 -14t14 -34v-136q-4 -17 -21.5 -17t-20.5 17h-1v35q0 7 -7 7h-367q-7 0 -7 -7v-240q0 -7 7 -7zM735 256h-80v-80q0 -9 -6 -15t-15 -6t-15 6t-6 15v80h-76q-8 0 -14.5 6t-6.5 15t6.5 15.5
t14.5 6.5h76v75q0 9 6 15.5t15 6.5t15 -6.5t6 -15.5v-75h80q9 0 15.5 -6.5t6.5 -15.5t-6.5 -15t-15.5 -6z" />
    <glyph glyph-name="uniE7E4" unicode="&#xe7e4;" horiz-adv-x="1025" 
d="M962 383q0 -91 -35.5 -174t-95.5 -143.5t-143 -96t-175 -35.5q-91 0 -174.5 35.5t-143.5 95.5t-95.5 143.5t-35.5 175.5q0 91 35.5 174t95.5 143t143 95.5t175 35.5q91 0 174.5 -35.5t143.5 -95.5t95.5 -143t35.5 -175zM513 -25q111 0 205 54.5t148.5 148.5t55 204.5
t-54 205t-148.5 149t-205 55.5q-111 0 -205.5 -54.5t-149 -149t-54.5 -205.5q-1 -111 54 -205t149 -148.5t205 -54.5v0zM439 379h-199q-7 15 -1.5 26.5t20.5 14.5q63 12 126 21q13 2 38.5 3.5t30.5 2.5q6 1 6 5v92h-205l-1 4q-1 25 3.5 30t29.5 9q5 1 53 8.5t73 11.5
q2 0 48 4v46q0 12 4 17.5t16 9.5q25 9 42 14q14 4 20 0t6 -19v-29v-30v-10q18 -1 53 -4q83 -7 138 -21q20 -5 24.5 -12t3.5 -28h-218v-98q34 -2 48 -3q89 -5 163 -23q6 -1 12 -4q12 -6 11 -17v-6v-8v-7h-10h-217q-13 0 -22 -9q-27 -28 -77.5 -79.5t-66.5 -67.5
q-8 -8 -13 -16q-9 -17 10 -24q9 -3 17 -3q42 0 127 0.5t127 0.5q17 0 28 12.5t8 29.5q-2 12 -11.5 20.5t-21.5 8.5q-9 0 -25 -2q-13 -1 -13 11q0 6 -1 11q-4 17 -17.5 24t-31.5 3q-2 0 -6 -1t-6 -2q-8 -2 -12 6q-3 5 3 12q19 19 46 21q38 2 56 -35q5 -10 18 -10q28 -1 43 -6
q48 -13 55 -62q7 -53 -34 -82q-23 -16 -51 -16h-173q-115 0 -172 1q-19 0 -40 6q-20 7 -29 24t-3 38q6 24 26 43q23 23 70 69t70 69q1 0 2 1.5t2 3.5z" />
    <glyph glyph-name="uniE7E5" unicode="&#xe7e5;" 
d="M511 861q97 0 185.5 -37.5t152.5 -101.5t101.5 -152.5t37.5 -185.5t-37.5 -185.5t-101.5 -152.5t-152 -101.5t-185.5 -37.5t-186 37.5t-152 101.5t-101.5 152t-38 185.5t38 185.5t101.5 152t152 102t185.5 38zM454 554q0 -66 -1 -99q0 -1 -2.5 -3t-4.5 -2
q-5 -1 -31.5 -2.5t-41.5 -3.5q-66 -10 -133 -22q-17 -4 -22.5 -16.5t1.5 -28.5h210q1 -2 1 -3q-3 -1 -4 -2q-100 -97 -149 -146q-21 -21 -27 -46q-6 -23 3.5 -40.5t30.5 -24.5q23 -7 43 -7q68 -1 183 -1h183q30 0 55 17q43 31 35 87q-7 51 -57 66q-16 5 -47 6q-14 0 -19 11
q-14 34 -50 37q-33 2 -58 -22q-7 -6 -3 -12q5 -9 13 -7q2 0 6 1.5t6 1.5q20 5 34 -3t18 -26q1 -4 2 -12q0 -12 13 -11q17 1 25 1q22 1 32.5 -16t1.5 -36q-10 -22 -36 -22q-143 -1 -268 -1q-9 0 -18 3q-22 6 -10 26q4 7 13 17q17 18 69.5 71.5t81.5 82.5q11 11 25 11h229h12
v8v8v7q0 13 -12 18q-5 2 -13 4q-78 20 -173 25q-8 1 -25 1.5t-25 1.5v104h230q3 20 -2 28.5t-23 12.5q-58 16 -151 24q-36 3 -55 4v11q0 43 -1 64q0 27 -25 20q-16 -5 -47 -16q-12 -4 -16.5 -10t-4.5 -19v-48q-5 -1 -12 -2q-65 -7 -75 -8q-22 -3 -63.5 -10.5t-50.5 -8.5
q-15 -3 -17 -13q0 -1 -2 -30h219z" />
    <glyph glyph-name="uniE7E6" unicode="&#xe7e6;" 
d="M868 251q-72 -96 -195 -141q-52 -18 -102 -23q-8 -1 -16 -1.5t-17.5 -1.5t-15.5 -1q-3 0 -4 -2q-21 -27 -63 -55q-46 -31 -112 -61q-19 -9 -34 6q-15 14 -6 35q20 50 28 84q2 7 0 13q-8 21 11 34q19 15 38 -1q13 -11 14 -28q0 -16 -8 -48q-1 -3 -1 -4l1 -2q23 14 34 21
q33 22 47 38q4 5 6 10q10 21 32 19q3 0 20 1q84 3 154 34q100 44 153 128q32 50 39 106q13 102 -51 188q-59 82 -163 120q-46 17 -96 23q-42 5 -83 1q-113 -9 -199 -70q-81 -56 -113 -143q-18 -51 -14 -103q5 -73 52 -137q32 -44 82 -78q17 -12 14 -31q-3 -18 -22 -24
q-13 -3 -25 5q-45 30 -78 68q-50 57 -71 125q-16 52 -13 106q6 107 79 193q75 91 198 129q44 14 92 19q43 5 87 2q128 -10 227 -78q89 -60 131 -152q21 -46 26 -95q14 -124 -63 -228zM390 474h240q14 0 23 10t7 24q-3 27 -32 27h-235q-6 0 -11 -1q-11 -4 -17 -13.5t-5 -20.5
t10 -18.5t20 -7.5zM361 375q7 -21 30 -21h180q14 0 23 8.5t9 20.5q1 13 -8 22t-23 9h-181q-16 0 -25.5 -12t-4.5 -27z" />
    <glyph glyph-name="uniE7E7" unicode="&#xe7e7;" horiz-adv-x="1029" 
d="M303 595v10q0 121 -1 131q-1 30 19 50t50 19h285q31 0 49.5 -18.5t18.5 -49.5v-142h9q90 0 134 -1q30 0 48.5 -18t18.5 -49v-497q0 -31 -18.5 -49.5t-48.5 -18.5h-707q-31 0 -49.5 18.5t-18.5 48.5v499q0 30 18.5 48t49.5 18q89 0 134 1q1 -1 9 0zM723 551h-420v-546h420
v546zM766 552v-546l3 -1h103q9 0 14 7q6 9 6 20v492v9q-2 18 -20 19h-106zM259 552h-102q-23 0 -23 -24v-499q0 -24 24 -24h95h3h3v547zM681 595v5v3v134q0 26 -26 26h-285q-14 0 -20 -6t-6 -21v-132q0 -2 0.5 -5t0.5 -4h336z" />
    <glyph glyph-name="uniE7E8" unicode="&#xe7e8;" 
d="M720 -35h-418v771q0 31 18 49t49 18h285q30 0 48.5 -18.5t18.5 -48.5v-761q-1 -3 -1 -10v0zM665 594q0 89 -1 106q0 10 -6 15t-16 5h-262q-23 0 -23 -23v-103h308zM777 -35v628q5 1 8 1h80q29 0 47 -18.5t18 -46.5v-499q0 -28 -18 -46.5t-47 -18.5h-88v0zM244 -35h-51
q-46 1 -49 1q-21 3 -35 18t-17 37v13v491q0 25 12 42.5t34 23.5q8 3 12 3h95q-1 -210 -1 -629v0z" />
    <glyph glyph-name="uniE7E9" unicode="&#xe7e9;" 
d="M302 355l85 -84l94 -94l39 -39q8 -8 8 -18.5t-7.5 -18t-18.5 -7.5t-18 8l-39 38l-94 94l-133 133q-7 8 -7 18.5t7 17.5l266 266q7 7 18 7t18.5 -7.5t7.5 -18t-8 -17.5l-224 -225h486q11 0 19 -7.5t8 -18.5t-8 -19t-19 -8h-480zM256 402l-1 1v-2q0 1 1 1z" />
    <glyph glyph-name="uniE7EA" unicode="&#xe7ea;" horiz-adv-x="1165" 
d="M330 241v-219q0 -24 17 -41t41 -17h106h374q32 0 56 17.5t32 47.5q2 5 3 14t2 12q46 217 84 391q7 32 2 50q-8 30 -32 48.5t-56 18.5h-376q2 7 3 8q34 104 43 130q2 6 2 14q-1 35 -26.5 60.5t-60.5 26.5h-30h-29q-41 1 -64 -33q-5 -7 -13 -21l-12 -21q-20 -29 -56 -83
t-51 -77q-3 -4 -9 -4h-95q-15 -1 -27 -4q-30 -8 -48 -32t-18 -57v-321v-95q1 -38 27 -63.5t63 -26.5h33q21 0 37 13.5t20 34.5v401q0 12 8.5 20.5t20.5 8.5t20.5 -8.5t8.5 -20.5v-172z" />
    <glyph glyph-name="uniE7EB" unicode="&#xe7eb;" 
d="M513 -10h-365q-15 0 -21 6t-6 21q0 159 150 229q55 26 141 37q92 11 187 1q83 -9 139 -31q102 -41 143 -126q25 -53 22 -119q0 -7 -5 -12t-12 -5q-3 -1 -10 -1h-363zM866 30l-8 48q-25 89 -120 133q-57 26 -146 35q-95 10 -184 -3q-93 -14 -150 -48q-71 -42 -91 -120
q-2 -4 -8 -45h707zM670 593q1 -71 -21 -123q-19 -43 -51 -70q-43 -36 -94 -32t-90 46q-38 41 -50 98q-16 69 -4 141q10 57 59.5 94t108.5 30q55 -6 93 -42t47 -91q1 -10 1.5 -29t0.5 -22zM394 598q3 -53 4 -59q10 -66 52 -106q29 -27 63.5 -26.5t63.5 27.5q41 40 49 98
q4 28 4 91q0 43 -29.5 76t-72.5 39q-44 5 -81 -19.5t-47 -67.5q-1 -3 -6 -53z" />
    <glyph glyph-name="uniE7EC" unicode="&#xe7ec;" 
d="M513 -36h-390q-15 0 -21.5 6.5t-6.5 22.5q0 87 44 151.5t128 97.5q63 26 153 36q87 9 168 2q123 -12 197 -50q101 -52 133 -151q13 -41 12 -95q-1 -8 -6 -13t-13 -6h-3h-4h-3q-129 -1 -388 -1v0zM680 608q2 -76 -23 -132q-19 -44 -52 -73q-45 -39 -100 -36t-97 48
q-41 43 -54 105q-17 74 -4 151q10 62 63.5 101t115.5 32q67 -9 108.5 -55t42.5 -114v-9v-10v-8z" />
    <glyph glyph-name="uniE7EF" unicode="&#xe7ef;" 
d="M1022 415v-63l-1 -5q-4 -58 -5 -58q-7 -73 -29 -136q-56 -158 -200 -226q-85 -40 -198 -49q-82 -7 -163 0q-81 8 -146 31q-170 61 -236 224q-35 88 -41 206q-3 72 4 141q8 76 31 139q39 107 119 173q60 48 142 73q69 22 153 27q6 0 17 1t13 1h60l5 -1q58 -4 59 -4
q73 -7 137 -30q80 -28 137 -79q71 -64 106 -162q27 -76 34 -173q0 -5 0.5 -15.5t1.5 -14.5zM635 668v16q0 6 -4 9q-71 52 -151 39q-53 -8 -94 -40q-4 -3 -3 -7q0 -4 0.5 -21t1.5 -27q7 -81 26 -162q32 -132 92 -241q3 -5 7 -5t7 5q3 7 10 20.5t12.5 25t9.5 21.5
q74 169 86 367zM479 234q-108 207 -117 445q-55 -12 -79 -52q-8 -15 -15 -33q-6 -14 -14 -27q-38 -64 -22 -131q11 -50 51 -98q57 -69 153 -125l4 -1l-5 4q-77 63 -123 122q-40 54 -56 104q-21 67 1 124l2 5q1 -2 1 -4q-7 -34 -1 -70q8 -48 36 -96q54 -91 156 -170
q3 -2 4 -1q4 0 24 4zM536 234q18 -3 20 -4q5 -1 9 2q69 52 119 115q46 57 65 113q25 76 -4 145q-25 59 -86 73l-5 1q-9 -238 -118 -445zM585 88q1 2 1 3v68q0 3 -4 5q-26 9 -52 12q-47 5 -89 -12q-4 -1 -4 -6v-65v-5q82 27 148 0zM758 580q7 -15 7 -16q22 -53 3 -117
q-17 -58 -66 -118q-45 -56 -116 -113l-4 -3q2 0 4 1q59 33 106 75q53 47 79 96q40 75 14 147q-10 26 -27 48zM512 32q28 0 64 11q7 2 8.5 3.5t1.5 9.5q0 7 -1 8.5t-8 3.5q-20 8 -50 10q-47 3 -80 -9q-8 -2 -9 -4t-1 -10v-6q-1 -4 4 -5q36 -12 71 -12z" />
    <glyph glyph-name="uniE7F0" unicode="&#xe7f0;" 
d="M482 894h60l5 -1q58 -4 59 -4q73 -7 137 -30q80 -28 137 -79q71 -64 106 -162q27 -76 34 -173q0 -10 2 -30v-63l-1 -5q-4 -58 -5 -58q-7 -73 -29 -136q-56 -158 -200 -226q-85 -40 -198 -49q-82 -7 -163 0q-81 8 -146 31q-170 60 -236 224q-35 88 -41 206q-3 72 4 141
q8 76 31 139q39 107 119 173q60 48 142 73q69 22 153 27q3 0 30 2zM773 405h2h13h17q10 1 16.5 7t6.5 16v19q0 24 -24 24h-49q-5 0 -6 4q-25 57 -40 89q-13 28 -42 32q-16 3 -31 3q-121 2 -154 2q-44 0 -120 -4q-33 -2 -47 -33q-16 -34 -40 -89q-2 -4 -7 -4h-50
q-10 0 -16 -6.5t-6 -16.5v-20q0 -10 6 -16t16 -7h16h16v-7v-198q0 -15 9.5 -24.5t23.5 -9.5q23 -1 43 0q15 0 24 9.5t9 23.5v20v12h305v-31q0 -15 9.5 -24.5t25.5 -9.5q9 -1 38 0q17 0 26.5 9.5t9.5 26.5v196v7zM723 449h-422q10 23 11 25q30 69 34 80q3 7 9 7q43 5 48 5
q96 6 199 1q3 0 65 -6q7 0 10 -7q7 -16 43 -98q0 -1 3 -7zM692 296h-26q-23 1 -23 24v4q0 22 21 27q20 4 51 10q9 2 16.5 -3t8.5 -14q1 -14 0 -29.5t-19 -17.5l-2 -1h-27v0zM332 296h-25q-24 1 -24 24v19q0 11 8.5 18t18.5 4q9 -2 25.5 -5.5t22.5 -4.5q7 -1 14 -5
q9 -6 9 -17v-12q-1 -18 -19 -20q-2 -1 -3 -1h-27v0zM512 296h-62q-8 0 -11 3.5t-3 11.5q0 12 3 15t15 3h119q9 0 12 -3t3 -12q0 -12 -3 -15t-15 -3h-58z" />
    <glyph glyph-name="uniE7F1" unicode="&#xe7f1;" 
d="M1022 416v-63l-1 -5q-4 -58 -5 -58q-7 -73 -29 -136q-56 -158 -200 -226q-85 -40 -198 -49q-82 -7 -163 0q-81 8 -146 31q-170 60 -236 224q-35 87 -41 206q-3 72 4 141q8 76 31 139q39 107 119 173q60 48 142 73q69 22 153 27q2 0 30 2h60l5 -1q58 -4 59 -4
q73 -7 137 -30q80 -28 137 -80q71 -63 106 -161q27 -76 34 -173q0 -5 0.5 -15t1.5 -15zM493 312q-1 -24 -16 -37t-33 -13q-20 0 -33 13t-17 37h-42h-6q-6 -47 -46 -50q-18 -1 -32 9q-19 15 -20 41h-20v-244h185q-2 42 27.5 72.5t71.5 29.5q37 0 64 -24q34 -30 33 -78h186
v244h-18q-1 -23 -15.5 -36t-31.5 -14q-44 -1 -52 50h-50q-1 -24 -15.5 -36.5t-32.5 -13.5q-21 0 -34 13t-17 37h-36zM558 328v-17q1 -8 6 -13.5t12 -5.5q10 -2 17 4.5t7 17.5v196v5h-177v-7v-167v-27q0 -6 2 -11q7 -14 23 -11q15 2 17 17v19h93zM600 534q-33 62 -89 167
q-65 -124 -88 -167h177zM489 445h45v-60h-45v60z" />
    <glyph glyph-name="uniE7F4" unicode="&#xe7f4;" 
d="M512 867q-98 0 -187.5 -38.5t-154 -103t-103 -154t-38.5 -187.5t38.5 -187.5t103 -154t154 -103t187.5 -38.5t187.5 38.5t154 103t103 154t38.5 187.5t-38.5 187.5t-103 154t-154 103t-187.5 38.5zM512 -49q-88 0 -168 34.5t-138 92.5t-92.5 138t-34.5 168t34.5 168
t92.5 138t138 92.5t168 34.5t168 -34.5t138 -92.5t92.5 -138t34.5 -168t-34.5 -168t-92.5 -138t-138 -92.5t-168 -34.5zM767 407h-459l212 211q7 8 7 18t-7 16q-7 8 -17 8t-17 -8l-250 -250q-7 -7 -7 -17t7 -17l125 -125l88 -88l37 -37q7 -7 17 -7t17 7t7 17t-7 17l-1 1
l-1 1l-1 1h-1v1l-1 1l-1 1v0l-1 1l-1 1l-1 1l-1 1l-1 1l-1 1l-1 1l-1 1l-1 1h-1v1l-1 1l-1 1l-1 1l-1 1l-1 1l-1 1l-1 1l-1 1l-1 1h-1v1l-1 1l-1 1l-1 1l-1 1l-1 1l-1 1l-1 1l-1 1l-1 1l-2 1l-88 89l-80 80h452q10 0 17.5 7.5t7.5 17.5t-7.5 17.5t-17.5 7.5zM269 400v2l1 -1
z" />
    <glyph glyph-name="uniE7F5" unicode="&#xe7f5;" 
d="M512 867q-98 0 -187.5 -38.5t-154 -103t-103 -154t-38.5 -187.5t38.5 -187.5t103 -154t154 -103t187.5 -38.5t187.5 38.5t154 103t103 154t38.5 187.5t-38.5 187.5t-103 154t-154 103t-187.5 38.5zM569 23h-114v514h114v-514zM567 617q-22 -20 -55 -20q-32 0 -55 20
q-22 22 -22 55t22 53.5t55 20.5t56 -20q21 -22 21 -54q0 -33 -22 -55z" />
    <glyph glyph-name="uniE7F7" unicode="&#xe7f7;" 
d="M1022 415v-63l-1 -5q-4 -58 -5 -58q-7 -73 -29 -136q-56 -158 -200 -226q-85 -40 -198 -49q-82 -7 -163 0q-81 8 -146 31q-170 60 -236 224q-35 88 -41 206q-3 72 4 141q8 76 31 139q39 107 119 173q60 48 142 73q69 22 153 27q6 0 17 1t13 1h60l5 -1q58 -4 59 -4
q73 -7 137 -30q80 -28 137 -79q71 -64 106 -162q27 -76 34 -173q0 -5 0.5 -15t1.5 -15zM560 288l4 -5q46 -47 132 -133l4 -4q13 -11 29.5 -6t20.5 21q5 18 -9 32q-115 114 -217 216l-216 216q-5 5 -11 4.5t-9 -5.5q-39 -49 -22 -110q8 -28 36 -56q22 -21 62.5 -61.5
t50.5 -51.5q1 0 6 -4l-5 -5q-63 -62 -142 -142l-6 -6q-10 -13 -4.5 -28.5t21.5 -19.5q17 -4 31 10q26 25 74 73l69 69q0 1 4 6q22 -26 46 -28q28 -3 51 18zM621 400q29 0 53 25l47 47l35 35l3 3q6 7 3 15.5t-12 10.5q-9 3 -17 -6l-83 -83q-16 -16 -38 -14.5t-36 19.5
q-11 14 -9.5 32.5t14.5 32.5l43 43l41 41q12 12 0.5 23.5t-23.5 -0.5l-86 -86q-36 -38 -16 -88q9 -23 30.5 -36.5t50.5 -13.5zM599 484q0 -13 10 -17q10 -5 18 3q47 47 84 85q12 12 0.5 23.5t-23.5 -0.5q-50 -50 -84 -85z" />
    <glyph glyph-name="uniE7F8" unicode="&#xe7f8;" 
d="M482 894h60l5 -1q58 -4 59 -4q73 -7 137 -30q80 -28 137 -79q71 -64 106 -162q27 -76 34 -173q0 -10 2 -30v-63l-1 -5q-4 -58 -5 -58q-7 -73 -29 -136q-56 -158 -200 -226q-85 -40 -198 -49q-82 -7 -163 0q-81 8 -146 31q-170 60 -236 224q-35 88 -41 206q-3 72 4 141
q8 76 31 139q39 107 119 173q60 48 142 73q69 22 153 27q3 0 30 2zM510 449l-2 -3q-94 -132 -120 -168q-3 -4 -3 -8q-1 -7 4 -12t13 -5h147h6v-7v-110q0 -14 14 -14h38q8 0 11 3.5t3 11.5v110v6h41h113q11 0 15 9q4 8 -2 16q-48 67 -119 167l-2 4h3q31 1 43 0q9 0 11.5 6.5
t-1.5 12.5q-2 3 -36 50q-65 92 -85 119q-14 20 -28 0q-1 -1 -13 -19q-85 -118 -107 -149q-5 -8 -2 -14t12 -6h5h41zM357 384l-1 -3q-57 -80 -73 -102q-7 -9 -3 -17q5 -9 15 -9h8h8q5 0 7 4q20 28 111 155q1 1 3 5h-72l3 5q69 96 87 122q9 12 9 14q0 1 -9 13q-14 20 -29 0
q-103 -145 -117 -165q-8 -10 -5 -16q4 -6 16 -6h42zM457 171v38q0 11 -11 11q-10 1 -20 0q-12 0 -12 -11v-75q0 -11 12 -12q7 0 19 0.5t12 12.5v36z" />
    <glyph glyph-name="uniE7F9" unicode="&#xe7f9;" 
d="M1022 416v-63l-1 -5q-4 -58 -5 -58q-7 -73 -29 -136q-56 -158 -200 -226q-85 -40 -198 -49q-82 -7 -163 0q-81 8 -146 31q-170 60 -236 224q-35 87 -41 206q-3 72 4 141q8 76 31 139q39 107 119 173q60 48 142 73q69 22 153 27q2 0 30 2h60l5 -1q58 -4 59 -4
q73 -7 137 -30q80 -28 137 -80q71 -63 106 -161q27 -76 34 -173v-12q1 -12 2 -18zM773 291h31q10 0 16.5 6t6.5 16v19q0 24 -24 24h-48q-5 0 -7 5q-25 56 -40 89q-13 28 -43 32q-27 3 -56 3q-147 5 -247 -2q-34 -3 -48 -33t-39 -89q-3 -5 -8 -5h-49q-10 0 -16.5 -6t-6.5 -17
v-18q0 -24 24 -24h30v-7v-196q0 -5 1 -8q1 -12 10 -20.5t21 -8.5q22 -1 46 0q13 0 22 9.5t9 22.5v28v5h305v-31q1 -15 10.5 -24.5t23.5 -9.5h39q37 0 37 37v196v7zM707 530q-4 87 -53 158h1h2q67 -15 105 -70q4 -5 21 -38q4 -8 11.5 -8.5t11.5 6.5q3 5 0 13q-23 57 -73 91
t-110 35q-61 1 -112 -32t-75 -89q-16 -36 -16 -77q0 -14 12 -15h18h136h58h58h87h5v-3q-4 -47 -32 -87q-3 -4 -2 -6q1 -3 10 -24q21 24 34 53q16 37 16 78q0 14 -12 14q-4 1 -22 1h-73h-6zM300 335q9 20 10 22q31 72 36 84q2 5 7 5q34 5 36 5q108 7 229 1l27 -3q18 -2 21 -2
q7 -1 11 -9q7 -16 43 -99l2 -4h-422zM331 182h-26q-23 0 -23 23v19q0 12 8 18t20 4q44 -9 47 -9q7 -2 14 -6q9 -5 9 -16v-12q0 -9 -6.5 -15t-15.5 -6h-27zM691 182h-26q-23 0 -23 23v6q0 20 18 24q26 7 57 12q8 1 15 -5t8 -15v-24q-1 -9 -7 -15t-16 -6h-1h-25zM511 214h63
q13 0 13 -13t-3 -16t-16 -3h-118q-9 0 -12 3t-3 12v5q0 12 13 12h63zM682 530h-124q5 91 62 162q57 -71 62 -162zM533 530h-87q3 58 43 103t97 56q-49 -72 -53 -159z" />
    <glyph glyph-name="uniE7FA" unicode="&#xe7fa;" 
d="M1022 415v-63l-1 -5q-4 -58 -5 -58q-7 -73 -29 -136q-56 -158 -200 -226q-85 -40 -198 -49q-82 -7 -163 0q-81 8 -146 31q-170 60 -236 224q-35 88 -41 206q-3 72 4 141q8 76 31 139q39 107 119 173q60 48 142 73q69 22 153 27q2 0 30 2h60l5 -1q58 -4 59 -4
q73 -7 137 -30q80 -28 137 -79q71 -64 106 -162q27 -76 34 -173q0 -5 0.5 -16t1.5 -14zM660 258h18q12 -1 16 3t3.5 17t-13.5 13h-345q-3 0 -6 -1t-4.5 -3.5t-1.5 -4.5t-0.5 -5t0.5 -5q-1 -10 7 -13q2 -1 7 -1h22q-51 -85 -127 -152h169q7 37 37.5 62t69.5 25
q38 0 68.5 -24.5t38.5 -62.5h168q-75 67 -127 152zM398 324h227q-33 74 -48 152h9q13 0 13 13v5q0 8 -3 11.5t-11 3.5h-146q-14 0 -14 -14v-7q0 -11 11 -12h10q-14 -79 -48 -152zM532 596q-9 51 -9 55q-2 10 -11 10t-11 -10q-1 -5 -9 -55h-22q-12 0 -13 -12v-10q0 -9 -1 -13
q0 -1 -1 -19h113q-2 40 -2 44q0 10 -11 10h-23z" />
    <glyph glyph-name="uniE7FB" unicode="&#xe7fb;" 
d="M482 894h60l5 -1q58 -4 59 -4q73 -7 137 -30q80 -28 137 -79q71 -64 106 -162q27 -76 34 -173q0 -10 2 -30v-63l-1 -5q-4 -58 -5 -58q-7 -73 -29 -136q-56 -158 -200 -226q-85 -40 -198 -49q-82 -7 -163 0q-81 8 -146 31q-170 60 -236 224q-35 88 -41 206q-3 72 4 141
q8 76 31 139q39 107 119 173q60 48 142 73q69 22 153 27q3 0 30 2zM347 381v-16v-242q0 -13 12 -13q10 -1 31 0q8 0 10 6q1 3 1 9v393q0 5 1 6q0 10 11 11h5q10 0 13 -3t3 -14v-180v-7q2 -8 8.5 -12t14.5 -1q80 33 168 69q73 30 164 67q10 4 10.5 14.5t-9.5 15.5q-1 1 -6 3
q-352 144 -411 168q-12 5 -19 0t-7 -17v-257z" />
    <glyph glyph-name="uniE7FC" unicode="&#xe7fc;" 
d="M1022 415v-63l-1 -5q-4 -58 -5 -58q-7 -73 -29 -136q-56 -158 -200 -226q-85 -40 -198 -49q-82 -7 -163 0q-81 8 -146 31q-170 60 -236 224q-35 88 -41 206q-3 72 4 141q8 76 31 139q39 107 119 173q60 48 142 73q69 22 153 27q2 0 30 2h60l5 -1q58 -4 59 -4
q73 -7 137 -30q80 -28 137 -79q71 -64 106 -162q27 -76 34 -173q0 -5 0.5 -15t1.5 -15zM642 498v7q0 71 1 77q0 15 -9 29t-25 17q-32 7 -38 8q-53 7 -110 1q-33 -4 -53 -11q-10 -4 -13 -8q-14 -16 -14 -36v-78v-6h-7h-79q-18 0 -30 -11t-15 -28q0 -2 -0.5 -6.5t-0.5 -6.5
q-8 -47 -9 -110q-2 -72 5 -128q3 -23 6 -45q3 -18 18 -28q11 -8 27 -8h431h3q16 0 27.5 9.5t14.5 24.5q1 2 1 7t1 7q9 50 10 121q1 68 -5 119q-1 4 -3 17.5t-3 20.5q-1 21 -13.5 33t-33.5 12h-77h-7zM381 324q0 3 1 4q4 17 20 17h67q16 0 20 -16l1 -6h29q25 0 25 -25v-103
q0 -25 -24 -25h-169q-24 1 -24 25v104q0 24 24 24h28q1 0 2 1zM479 247q0 18 -12.5 30.5t-30.5 13t-31 -12.5t-13 -31t12.5 -31t30.5 -13t31 13t13 31zM425 498v56q0 8 6 13.5t13 6.5h7h119q31 1 29 -28v-42v-6h-174zM653 323q-18 0 -30.5 13t-12.5 31t12.5 30.5t31 12.5
t31 -13t12.5 -31t-13 -30.5t-31 -12.5z" />
    <glyph glyph-name="uniE7FE" unicode="&#xe7fe;" 
d="M1022 415v-63l-1 -5q-4 -58 -5 -58q-7 -73 -29 -136q-56 -158 -200 -226q-85 -40 -198 -49q-82 -7 -163 0q-81 8 -146 31q-170 61 -236 224q-35 88 -41 206q-3 72 4 141q8 76 31 139q39 107 119 173q60 48 142 73q69 22 153 27q6 0 17 1t13 1h60l5 -1q58 -4 59 -4
q73 -7 137 -30q80 -28 137 -79q71 -64 106 -162q27 -76 34 -173q0 -5 0.5 -15t1.5 -15zM656 444q23 15 28 18q2 1 2 4q-1 22 -2 26q-6 36 -29.5 62.5t-53.5 37.5t-64.5 6.5t-62.5 -27.5q-2 -1 -28 -28q-1 0 -2 1v1q-46 61 -120 54q-64 -6 -98 -61.5t-10 -115.5
q10 -27 38 -55q23 -22 48 -47.5t56 -55.5l47 -48q20 -20 26 -25q16 -15 31 0q9 8 59 58l2 3l-27 27q-42 42 -34 101q7 46 47 75t86 20q36 -7 61 -31zM653 404l-3 4q-31 45 -83 38q-54 -6 -72 -58q-17 -51 21 -90q8 -8 125 -126q13 -12 25 0q0 1 1 2l1 1q116 117 123 123
q27 27 26 64q-3 54 -50 77q-48 22 -91 -11q-1 -1 -23 -24z" />
    <glyph glyph-name="uniE7FF" unicode="&#xe7ff;" 
d="M1022 416v-63l-1 -5l-4 -58q-7 -73 -30 -136q-55 -158 -200 -226q-84 -40 -198 -49q-81 -7 -162 0q-81 8 -147 31q-169 60 -235 224q-35 87 -41 206q-4 72 4 141q8 76 30 139q39 107 120 173q60 48 142 73q68 22 152 27q3 0 30 2h61l5 -1q58 -4 59 -4q73 -7 137 -30
q80 -28 137 -80q70 -63 105 -161q28 -76 34 -173q1 -5 1.5 -15t0.5 -15zM513 623l-2 -1l-4 -4q-41 -46 -63 -101q-33 -78 -17 -156q15 -71 65 -135q1 -1 20 -23l5 6q41 44 64 100q31 75 17 151q-13 68 -58 130q-2 2 -27 33zM176 321v-3q2 -3 3 -5q42 -84 127 -127
q64 -33 144 -39h24q-23 108 -120 151q-59 26 -134 25q-2 0 -44 -2zM549 147h9q62 0 121 22q115 41 167 145l3 5l-2 1q-13 2 -16 2q-71 5 -131 -13q-99 -31 -137 -120q0 -2 -14 -42zM344 571q-31 -89 -4 -173q27 -81 109 -141l-1 3q-63 111 -34 234q1 4 -1 7q-20 27 -28 36
q-15 17 -41 34zM576 258q92 63 114 161q17 76 -9 152l-2 -1q-43 -29 -68 -69q-1 -3 0 -7q24 -104 -19 -204q-1 -1 -16 -32zM368 310l-2 4q-23 34 -24 37q-22 38 -26 73q-1 3 -5 4q-48 19 -62 24q-2 1 -39 10v-3q5 -30 6 -34q8 -36 39 -84q1 -2 5 -2q40 -4 68 -14
q2 -1 40 -15zM816 462l-7 -1q-45 -10 -88 -29q-14 -6 -13 -17l-1 -1q-8 -42 -40 -89q-1 -1 -11 -16q27 12 29 12q35 13 80 18q3 0 4 2q30 45 38 76q0 3 9 45z" />
    <glyph glyph-name="uniE801" unicode="&#xe801;" 
d="M1022 415v-63l-1 -5q-4 -58 -5 -58q-7 -73 -29 -136q-56 -158 -200 -226q-85 -40 -198 -49q-82 -7 -163 0q-81 8 -146 31q-170 60 -236 224q-35 88 -41 206q-3 72 4 141q8 76 31 139q39 107 119 173q60 48 142 73q69 22 153 27q6 0 17 1t13 1h60l5 -1q58 -4 59 -4
q73 -7 137 -30q80 -28 137 -79q71 -64 106 -162q27 -76 34 -173q0 -5 0.5 -15t1.5 -15zM736 639q-10 -14 -10 -15q-33 -52 -40 -97q-4 -30 10 -51.5t42 -29.5q12 -2 12 -4q1 -1 0 -14v-1q-2 -13 -11 -21.5t-22 -8.5h-41q-3 0 -5 2q-24 18 -54 18h-209q-31 0 -54 -19
q-3 -2 -6 -2q-32 0 -43 1q-21 1 -29 20q-4 9 -3 27l7 1q43 8 55 45q7 20 0 48q-10 47 -46 98q0 1 -2 2q-5 -20 -16 -57.5t-16 -55.5h-1q-3 6 -12 48t-14 65l-2 -1q-48 -53 -55 -114q-3 -29 10.5 -49t41.5 -27q1 0 11 -2q3 -25 3 -26q8 -40 44 -48q7 -2 23 -2h26
q-1 -6 -3.5 -19t-3.5 -20h-23h-20q-8 0 -13 -5.5t-4.5 -12.5t5.5 -12t12 -5h14h30v-31h-36q-5 0 -9 -1q-14 -5 -11 -19q2 -15 16 -16h45q4 0 6 -4q3 -6 20 -33l3 -4h-2h-4h-36q-20 -1 -25 -19q-3 -10 -4 -30q0 -9 10 -11h8q15 -1 14 15q0 11 10 12h7h65q3 0 7 -1
q24 -9 50 -9h108q28 0 52 10q3 1 7 1h64q3 0 6 -1q10 -2 9 -12q-1 -15 14 -15h7q12 2 12 13q0 12 -2 19q-4 28 -34 28h-11h-18l-5 1l3 4q16 26 20 32q2 5 6 5q17 -1 42 0q8 0 13 5t5 12.5t-5 12.5t-13 5h-19h-19v31h43q8 0 13 5t5 12.5t-5 13t-13 5.5h-19h-22q-5 23 -7 38h5
h31q42 3 54 42q1 6 4 20q0 3 -0.5 5.5t0 4.5t1.5 3.5t3 2t5 1t5 0.5q39 11 48 46q4 17 1 39q-8 46 -42 90q0 1 -14 16q-4 -20 -13 -58t-13 -56h-1q-11 39 -33 114zM586 532q-12 0 -21 -9t-9 -21.5t9 -21t21.5 -9t21.5 8.5t9 22t-9 21.5t-22 8.5zM468 502q0 12 -9 21t-21.5 9
t-21.5 -9t-9 -21q0 -13 9 -21.5t21.5 -8.5t21.5 8.5t9 21.5z" />
    <glyph glyph-name="uniE802" unicode="&#xe802;" 
d="M1022 416v-63l-1 -5l-4 -58q-8 -73 -30 -136q-56 -158 -200 -226q-84 -40 -198 -49q-82 -7 -163 0q-80 8 -146 31q-169 60 -235 224q-36 87 -42 206q-3 72 4 141q9 76 31 139q39 107 120 173q59 48 141 73q69 22 153 27q3 0 30 2h60q5 -1 6 -1q58 -4 59 -4q73 -7 136 -30
q81 -28 138 -80q70 -63 105 -161q28 -76 34 -173q1 -12 2 -30zM588 308h6h122q25 0 25 26v211q0 25 -25 25h-154h-6v7v48q-1 16 -16 20q-4 1 -10 1q-68 1 -231 1q-9 0 -12.5 -3.5t-3.5 -12.5v-492v-4q1 -12 12 -12h28q9 0 12 3t3 12v240v7h218v7v116q0 12 3 15.5t15 3.5
q8 0 11 -3.5t3 -11.5v-197v-7z" />
    <glyph glyph-name="uniE803" unicode="&#xe803;" 
d="M1022 415v-63l-1 -5l-4 -58q-8 -73 -30 -136q-56 -158 -200 -226q-84 -40 -198 -49q-82 -7 -163 0q-81 8 -146 31q-169 61 -235 224q-36 88 -42 206q-3 72 4 141q8 76 31 139q39 107 120 173q59 48 141 73q69 22 153 27q3 0 30 2h60q5 -1 6 -1q58 -4 59 -4q73 -7 136 -30
q80 -28 138 -79q70 -64 105 -162q27 -76 34 -173zM280 354l2 -8q8 -21 28.5 -71.5t31.5 -77.5q2 -4 6 -4q20 2 36 16q8 7 15 6q9 -3 16 -8q15 -11 29 -13q32 -6 57 16q10 9 21 2q1 0 7 -5q14 -11 29 -13q32 -6 57 16q9 8 21 2q1 -1 7 -5q16 -13 36 -14q5 -1 7 4
q11 27 31.5 77.5t28.5 71.5q8 19 -11 30q-82 47 -95 53q-53 31 -115 66q-11 6 -22 0q-51 -29 -81 -46q-17 -10 -61.5 -35t-68.5 -38q-12 -7 -12 -22zM688 441v7v90q0 17 -9.5 26.5t-25.5 8.5q-9 0 -14.5 6t-5 13.5t0.5 23.5q0 10 -6.5 16.5t-16.5 6.5h-195q-9 0 -15.5 -6.5
t-6.5 -15.5v-25q0 -8 -5 -13t-13 -5q-36 0 -36 -37v-89v-7l5 3q118 67 135 77q23 14 44 11q5 0 7 -2q19 -10 109 -61q7 -4 48 -28zM627 144l2 -1q2 -1 3 -2q28 -17 61 -14t56 25q13 12 3 24q-11 11 -25 0q-9 -8 -16 -11q-37 -16 -71 11q-14 11 -27 -1q-18 -16 -43 -16
q-23 0 -44 17q-13 11 -27 0q-9 -8 -15 -11q-38 -16 -72 11q-14 12 -29 -1q-26 -21 -59 -14q-13 3 -30 17q-12 10 -23 -3q-9 -12 3 -23q25 -23 58.5 -25.5t62.5 16.5q3 3 7 0q24 -16 53 -16q31 -1 58 18q57 -37 114 -1z" />
    <glyph glyph-name="uniE805" unicode="&#xe805;" 
d="M1022 415v-63l-1 -5q-4 -58 -5 -58q-7 -73 -29 -136q-56 -158 -200 -226q-85 -40 -198 -49q-82 -7 -163 0q-81 8 -146 31q-170 61 -236 224q-35 88 -41 206q-3 72 4 141q8 76 31 139q39 107 119 173q60 48 142 73q69 22 153 27q6 0 17 1t13 1h60l5 -1q58 -4 59 -4
q73 -7 137 -30q80 -28 137 -79q71 -64 106 -162q27 -76 34 -173q0 -5 0.5 -15t1.5 -15zM229 435q0 -47 20 -85q23 -46 63 -62q5 -2 6 -8q9 -36 25 -70q30 -64 77 -99q42 -32 89.5 -33t90.5 30q31 23 55 59q33 48 49 113q2 6 5 7q36 14 58 51q27 44 26 99q0 38 -15 67
q-22 44 -75 65q-5 3 -8 8q-31 59 -89 89t-123 20q-104 -15 -155 -109q-3 -5 -8 -7q-40 -16 -63 -45q-28 -36 -28 -90zM526 560q67 -3 73 -3q60 -4 86 -13q67 -25 78 -86q5 -30 -8 -74q-10 -31 -30 -51q-31 -30 -75 -27q-8 1 -22 8q-24 13 -54 47q-3 4 -9 11t-9 11
q-19 21 -45 21t-45 -22q-32 -37 -33 -38q-6 -6 -26 -22q-31 -26 -75 -10q-36 13 -55 50q-18 35 -19 76q-1 48 38 82q29 25 73 31q55 8 157 9zM512 198q23 -1 24 -1q18 -2 19 -20q0 -17 -11.5 -30t-27.5 -14q-18 -2 -31.5 8.5t-16.5 27.5v5q-1 21 19 23q5 1 6 1h19v0z" />
    <glyph glyph-name="uniE806" unicode="&#xe806;" 
d="M1022 416v-63l-1 -5l-4 -58q-7 -73 -30 -136q-55 -158 -200 -226q-84 -40 -198 -49q-81 -7 -163 0q-80 8 -146 31q-169 60 -235 224q-36 87 -41 206q-4 72 3 141q9 76 31 139q39 107 120 173q59 48 141 73q69 22 153 27q3 0 30 2h60l6 -1q58 -4 59 -4q73 -7 136 -30
q81 -28 138 -80q70 -63 105 -161q28 -76 34 -173zM249 310q14 -84 81.5 -148.5t166.5 -69.5q106 -5 185.5 63.5t91.5 171.5q8 75 -24 144q-15 32 -47.5 68t-49.5 40q30 -82 4 -162q-25 -82 -97 -131q-63 -44 -141 -43q-95 0 -170 67zM425 525l4 4q103 105 123 127q6 5 9 11
q5 8 -4 10q-7 1 -14 1q-41 1 -128 0h-6q-8 -3 -7 -11.5t9 -9.5h7h100h6q-4 -4 -4 -5q-81 -83 -109 -111q-7 -7 -7 -15q-1 -10 5.5 -16.5t17.5 -6.5h97q30 0 40 1q10 0 12 7q2 6 -1.5 10t-9.5 4h-60h-80zM288 357v2q82 81 89 89q6 5 10 11q5 7 -4 9q-4 1 -8 1h-76h-21
q-11 0 -11 -10q-1 -11 11 -11h62h6l1 -2l-5 -3q-9 -10 -32.5 -33t-36.5 -36q-11 -11 -6 -25q5 -13 22 -13h92h4q10 1 10 11t-11 10h-7h-89z" />
    <glyph glyph-name="uniE807" unicode="&#xe807;" 
d="M1022 415v-63l-1 -5q-4 -58 -5 -58q-7 -73 -29 -136q-56 -158 -200 -226q-85 -40 -198 -49q-82 -7 -163 0q-81 8 -146 31q-170 61 -236 224q-35 88 -41 206q-3 72 4 141q8 76 31 139q39 107 119 173q60 48 142 73q69 22 153 27q6 0 17 1t13 1h60l5 -1q58 -4 59 -4
q73 -7 137 -30q80 -28 137 -79q71 -64 106 -162q27 -76 34 -173v-12q1 -12 2 -18zM566 165h6h234q4 0 5 1q10 2 9 11q0 2 -2 7q-52 148 -76 216q-2 6 3 9q11 7 26 19q3 3 2 5.5t-4 4.5h-6h-502h-4q-5 -2 -6 -4q-2 -3 2.5 -6.5t29.5 -21.5l-2 -5q-30 -85 -58 -166
q-18 -52 -19 -53q-5 -16 12 -17h3h233h5v56q0 27 22.5 43t48.5 8q18 -6 28 -20t10 -33v-54zM326 460h371q-2 6 -6 17t-5 16q25 18 30 22q3 3 2 6q0 2 -4 4h-5h-394h-4q-5 -2 -6 -4q-2 -3 3 -6q4 -3 12.5 -9.5t12.5 -9.5q5 -3 3 -8q-1 -3 -10 -28zM373 547h277q-6 16 -6 18
q-2 4 2 7q5 3 13.5 10t13 9.5t2.5 5.5l-5 5h-4h-308h-3q-5 -3 -6 -5q-2 -3 2.5 -6t29.5 -22q-2 -4 -8 -22z" />
    <glyph glyph-name="uniE809" unicode="&#xe809;" 
d="M482 895h60l5 -1q58 -4 59 -4q73 -7 137 -30q80 -28 137 -80q71 -63 106 -161q27 -76 34 -173q0 -10 2 -30v-63l-1 -5q-4 -58 -5 -58q-7 -73 -29 -136q-56 -158 -200 -226q-85 -40 -198 -49q-82 -7 -163 0q-81 8 -146 31q-170 60 -236 224q-35 87 -41 206q-3 72 4 141
q8 76 31 139q39 107 119 173q60 48 142 73q69 22 153 27q4 0 30 2zM725 548v6v58q0 15 -10 24.5t-25 9.5h-367q-15 0 -24.5 -9.5t-9.5 -25.5v-453q0 -17 9.5 -26.5t25.5 -9.5h365q5 0 8 1q28 5 28 34v275v7h81q7 0 9 3q3 5 -1 11q-19 32 -20 33q-5 7 0 15t21 34q3 5 0.5 8.5
t-7.5 4.5h-6h-77zM506 373h-102q-10 0 -15 8t0 16.5t15 8.5h24h178h6q7 -1 11 -6t3 -11q0 -7 -4.5 -11.5t-11.5 -4.5h-73h-31zM506 471h-102q-14 0 -17 13q-2 7 2.5 13t12.5 7h4h201h3q7 0 12 -5t5 -11.5t-5 -11.5t-12 -5h-104zM474 275h-70q-11 0 -16 9q-4 9 2 18q5 6 14 6
h20h116q5 0 8 -1q6 -1 10 -6t3 -11q-1 -14 -15 -15h-16h-56z" />
    <glyph glyph-name="uniE80B" unicode="&#xe80b;" 
d="M1022 416v-63l-1 -5q-4 -58 -5 -58q-7 -73 -29 -136q-56 -158 -200 -226q-85 -40 -198 -49q-82 -7 -163 0q-81 8 -146 31q-170 60 -236 224q-35 88 -41 206q-3 72 4 141q8 76 31 139q39 107 119 173q60 48 142 73q69 22 153 27q2 0 30 2h60l5 -1q58 -4 59 -4
q73 -7 137 -30q80 -28 137 -80q71 -63 106 -161q27 -76 34 -173q0 -2 0.5 -13t1.5 -17zM512 674q-35 -4 -37 -4q-52 -10 -92.5 -42.5t-60.5 -76.5t-17 -97.5t33 -101.5q10 -16 159 -245q15 -23 29 0q93 143 102 156q52 81 63 100q37 62 25 136q-12 75 -70 124.5t-134 50.5z
M512 357q-43 0 -74 28.5t-35 70.5q-3 43 22.5 76.5t67.5 40.5q60 10 102 -37q11 -12 -1.5 -22.5t-23.5 2.5q-17 18 -41 24q-31 8 -58.5 -9.5t-33.5 -49.5t12 -58.5t50 -31.5q33 -6 59.5 14.5t29.5 53.5q1 13 10 16q10 4 17 -2q6 -6 6 -14q-3 -43 -34.5 -72.5t-74.5 -29.5z
" />
    <glyph glyph-name="uniE80C" unicode="&#xe80c;" 
d="M368 342q-7 4 -13 6q-8 2 -24.5 5t-24.5 5q-11 2 -19 -4t-8 -17v-10v-10q0 -24 24 -24h25v1h29q9 0 14.5 6t5.5 15v11q0 11 -9 16zM657 446h63q0 1 -1 3.5t-2 3.5q-34 79 -42 98q-3 7 -11 8q-58 6 -65 6q-105 4 -199 -1q-7 -1 -48 -5q-7 0 -10 -7q-4 -11 -44 -101
q0 -1 -0.5 -2.5t-0.5 -2.5h244q23 26 58 26t58 -26zM599 484q-14 0 -23.5 9.5t-9.5 23.5t9.5 24t23.5 10t23.5 -10t9.5 -24t-9.5 -23.5t-23.5 -9.5zM570 326h-119q-13 0 -16 -3t-3 -16q0 -8 3.5 -11t10.5 -3h62h59q12 0 15 3t3 15q0 9 -3 12t-12 3zM713 358q-8 -2 -25.5 -5
t-25.5 -5q-22 -5 -22 -27v-4q0 -24 24 -24h24h10h11h10q7 1 12.5 5.5t5.5 11.5q2 16 0 31q0 9 -7.5 14t-16.5 3zM1022 445q-7 99 -34 174q-36 98 -106 162q-57 51 -138 80q-64 23 -137 30q-11 1 -31 2t-28 2q-1 0 -2.5 0.5t-2.5 0.5h-61q-5 -1 -15 -1.5t-15 -0.5
q-85 -6 -153 -27q-82 -25 -142 -74q-82 -66 -120 -174q-23 -63 -32 -139q-7 -67 -4 -141q6 -119 42 -208q66 -163 236 -224q67 -23 147 -31q81 -7 163 -1q114 10 199 50q145 68 201 226q23 65 30 137q1 11 2 31t2 27q0 1 0.5 3t0.5 3v63q-1 5 -1.5 15t-0.5 15zM826 425
q0 -10 -6.5 -16t-16.5 -7h-30h-2v-6v-197q0 -37 -37 -37h-37q-16 0 -25.5 9.5t-9.5 25.5v30h-306v-30q0 -16 -9.5 -25.5t-25.5 -9.5h-39q-16 0 -26 9.5t-10 25.5v199v7h-30q-6 0 -11 2q-12 5 -13 19v20q0 24 24 24h48q6 0 7 5q8 16 40 88q14 31 48 34q81 6 193 4
q33 -1 98 -3q30 -2 45 -17q9 -10 12 -17q13 -30 39 -89q2 -5 7 -5h15h18h16q24 0 24 -24v-19z" />
    <glyph glyph-name="uniE80D" unicode="&#xe80d;" 
d="M1022 416v-63l-1 -5l-4 -58q-8 -73 -30 -136q-56 -158 -200 -226q-84 -40 -198 -49q-82 -7 -163 0q-81 8 -146 31q-169 60 -235 224q-36 88 -42 206q-3 72 4 141q8 76 31 139q39 107 120 173q59 48 141 73q69 22 153 27q3 0 30 2h60q5 -1 6 -1q58 -4 59 -4q73 -7 136 -30
q80 -28 138 -80q70 -63 105 -161q27 -76 34 -173zM200 308l2 -3q5 -5 14 -16t13 -16q40 -49 43 -54q22 -30 56 -18q59 22 175 64.5t175 63.5q91 33 117 42q17 7 25 21.5t3 31.5q-5 19 -22 27.5t-36 1.5q-88 -32 -179 -65q-5 -2 -9 1q-8 6 -45 36q-138 109 -180 143
q-5 3 -10 1q-1 0 -19 -7q-6 -2 -18 -6.5t-19 -6.5q25 -39 72 -111t70 -107l-4 -2q-79 -29 -109 -39q-3 -1 -6 1q-37 22 -46 29q-12 8 -25 3q-3 -2 -38 -15z" />
    <glyph glyph-name="uniE80E" unicode="&#xe80e;" 
d="M1021 416v-63l-1 -5l-4 -58q-7 -73 -30 -136q-56 -158 -200 -226q-84 -40 -198 -49q-81 -7 -163 0q-80 8 -146 31q-169 60 -235 224q-36 87 -41 206q-4 72 3 141q9 76 31 139q39 107 120 173q59 48 141 73q69 22 153 27q3 0 30 2h60l6 -1q58 -4 59 -4q73 -7 136 -30
q81 -28 138 -80q70 -63 105 -161q28 -76 34 -173q0 -5 1 -15t1 -15zM511 134v1h35q97 3 133 5t40 36q7 57 10 105q4 60 -1 135q-1 12 -9 101q-1 14 -10.5 24t-25.5 12q-74 7 -138 8q-119 2 -207 -9q-33 -4 -36 -33q-6 -71 -9 -113q-7 -122 9 -228q4 -34 38 -38q16 -2 28 -2
q22 -1 143 -4zM609 658v-6v-63q0 -15 12 -15.5t12 14.5v65q0 4 4 6q11 7 8 21q-2 13 -16 15q-25 4 -34 4q-68 2 -110 2q-56 0 -92 -6q-13 -2 -17 -15t8 -21q4 -2 4 -7v-32v-33q0 -9 7 -12t12 1t6 11v65v6q98 6 196 0zM405 98q0 13 -10 15q-15 4 -36 9q-13 3 -14 -7
q-1 -17 1 -26q2 -10 11.5 -16.5t21.5 -5.5q11 2 18.5 10.5t7.5 20.5zM677 104v8q-1 13 -14 10q-7 -1 -19.5 -4t-18.5 -5q-8 -2 -8 -10q-1 -3 0 -8q0 -11 7.5 -18.5t18.5 -9t20 4.5t12 17zM532 401q-28 9 -31 10q-8 3 -23.5 8t-23.5 8q-9 2 -3 9q12 11 14.5 12t17.5 0
q13 -1 40.5 -3.5t40.5 -3.5q5 0 8 3l30 30q17 16 38 13q13 -2 14 -15q1 -21 -14 -36l-14 -14l-16 -16q-3 -3 -2 -7q1 -18 3.5 -51t3.5 -44q0 -5 -2 -7q-9 -10 -15 -15q-4 -4 -6 4q-3 8 -18 57q-2 6 -7 24l-4 -3q-34 -30 -36 -32q-4 -3 -3 -8q1 -4 4 -22q1 -4 -3 -10t-7 -7
q-3 0 -5 3q-3 5 -10.5 16t-11.5 16q-2 4 -6 7q-15 10 -31 20q-5 3 -1 7q9 10 19 7q5 -1 18 -2q4 0 5 2q8 8 37 40z" />
    <glyph glyph-name="uniE80F" unicode="&#xe80f;" horiz-adv-x="1028" 
d="M570 594h-184q-9 0 -16 -7t-7 -17v-144q0 -10 7 -17t16 -7h184q10 0 17 7t7 17v144q-1 10 -7.5 17t-16.5 7zM726 525zM705 525q0 9 6 15t15 6t15.5 -6t6.5 -15t-6.5 -15.5t-15.5 -6.5t-15 6.5t-6 15.5zM1023 445q-6 97 -34 174q-35 98 -106 162q-56 51 -138 80
q-64 23 -136 30q-11 1 -31 2t-28 2q-1 0 -3 0.5t-3 0.5h-60q-5 -1 -15 -1.5t-15 -0.5q-85 -6 -154 -27q-82 -25 -142 -74q-81 -65 -120 -174q-23 -63 -31 -139q-7 -67 -4 -141q6 -119 42 -208q66 -163 236 -224q66 -23 147 -31q81 -7 163 -1q114 10 199 50q145 68 201 226
q22 65 29 137q1 11 2.5 31t2.5 27v3v3v63q-1 11 -2 30zM796 230q0 -19 -14 -33t-33 -14h-27q-19 0 -33 14t-14 33v154q0 5 -3.5 9t-8.5 4h-23v-218h33q10 0 17 -7t7 -16q0 -10 -7 -17t-17 -7h-390q-9 0 -16 7t-7 17q0 9 7 16t16 7h33v412q0 19 13.5 33t32.5 14h232
q19 0 32.5 -14t13.5 -33v-147h35q20 0 33.5 -14t13.5 -33v-153q0 -6 4 -10t9.5 -4t9.5 4t4 10v215q-11 -3 -23 -3q-28 0 -48.5 20t-20.5 49q0 28 19.5 48t47.5 21l-23 22q-10 10 -10 24.5t10 24.5q9 8 18 0l32 -32q44 -45 44 -107v-296h1z" />
    <glyph glyph-name="uniE810" unicode="&#xe810;" 
d="M1022 416v-63l-1 -5l-4 -58q-8 -73 -30 -136q-56 -158 -200 -226q-84 -40 -198 -49q-82 -7 -163 0q-81 8 -146 31q-169 60 -235 224q-36 88 -42 206q-3 72 4 141q8 76 31 139q39 107 120 173q59 48 141 73q69 22 153 27q3 0 30 2h60q5 -1 6 -1q58 -4 59 -4q73 -7 136 -30
q80 -28 138 -80q70 -63 105 -161q27 -76 34 -173zM610 167v8v423v8q-2 13 -11 21.5t-22 8.5h-261q-16 0 -26 -13q-7 -9 -7 -24v-425v-7q-17 0 -19 -1q-10 -1 -13 -11q-3 -9 5 -17q4 -4 15 -4h245h237q5 0 7 1q10 1 13 10q2 8 -2 14.5t-12 7.5h-18v7v263q0 24 -25 24h-68h-5
v-7v-279v-5q-2 -3 -4 -3h-29zM381 429v32h131v-32h-131zM381 254v32h131v-32h-131zM381 548h130v-32h-5h-119q-6 0 -6 6v26zM382 374h130v-32h-130v32z" />
    <glyph glyph-name="uniE811" unicode="&#xe811;" 
d="M1022 416v-63l-1 -5l-4 -58q-7 -73 -30 -137q-55 -157 -200 -225q-84 -40 -198 -50q-81 -6 -162 1q-81 8 -147 31q-169 60 -235 224q-36 87 -41 206q-4 72 4 141q8 76 30 138q39 108 120 174q59 48 142 73q68 22 152 27q3 0 30 2h60l6 -1q58 -4 59 -4q73 -7 137 -30
q80 -28 137 -80q70 -63 105 -161q28 -76 34 -173q1 -7 2 -30zM548 326v1l-2 2q-21 13 -23.5 38t15.5 42q2 2 6.5 5.5t6.5 5.5q18 17 21 20q50 60 38 145q-6 42 -37 71t-74 33q-46 5 -84 -21.5t-49 -71.5q-8 -30 -2 -71q8 -59 49 -97q5 -5 19 -16q17 -13 19 -37
q2 -17 -8 -31.5t-25 -19.5q-50 -14 -54 -15q-59 -17 -70 -22q-26 -9 -41.5 -31.5t-15.5 -50.5v-52v-5h242v6v145q0 6 1 9q4 18 24 18h44zM639 298h-60h-58q-14 0 -14 -13v-30q0 -3 3 -5q62 -35 127 -70q3 -2 6 0q66 36 126 70q3 2 3 6v26q0 10 -3.5 13t-12.5 3h-117z
M507 222v-3v-103q0 -13 14 -13h237q14 0 14 14v101v4q-5 -3 -6 -3q-95 -52 -120 -67q-6 -3 -13 0q-27 16 -121 67q0 1 -5 3z" />
    <glyph glyph-name="uniE812" unicode="&#xe812;" 
d="M1022 416v-63l-1 -5q-4 -58 -5 -58q-7 -73 -29 -136q-56 -158 -200 -226q-85 -40 -198 -49q-82 -7 -163 0q-81 8 -146 31q-170 60 -236 224q-35 87 -41 206q-3 72 4 141q8 76 31 139q39 107 119 173q60 48 142 73q69 22 153 27q2 0 30 2h60l5 -1q58 -4 59 -4
q73 -7 137 -30q80 -28 137 -80q71 -63 106 -161q27 -76 34 -173q0 -5 0.5 -15t1.5 -15zM784 145q-1 4 -2 4q-33 100 -40 121q-1 5 -7 5h-447q-5 0 -7 -5l-40 -120q0 -1 -1 -5h228v10q1 28 1 30q3 17 16.5 27t31.5 8q16 -1 27 -13.5t11 -29.5v-32h229zM686 439h-348l-1 -5
q-5 -72 -70 -105q-7 -3 -6 -12q1 -8 9 -9h7h470h4q9 0 11 9t-7 13q-44 21 -61 66q-7 18 -8 43zM664 624q-1 0 -4.5 0.5t-5.5 -0.5t-3 -3q-8 -9 -21 -11q-1 0 -6 -1q-22 -7 -51 -7q-48 1 -131 0q-20 0 -35 4q-11 4 -18 5q-9 2 -14 8q-4 6 -16 5v-21q-2 -76 -70 -110
q-8 -4 -6 -13q2 -8 11 -9h3h429q4 0 5 1q8 1 9 9q2 8 -5 12q-69 35 -71 111v20z" />
    <glyph glyph-name="uniE813" unicode="&#xe813;" 
d="M1022 415v-63l-1 -5q-4 -58 -5 -58q-7 -73 -29 -136q-56 -158 -200 -226q-85 -40 -198 -49q-82 -7 -163 0q-81 8 -146 31q-170 60 -236 224q-35 88 -41 206q-3 72 4 141q8 76 31 139q39 107 119 173q60 48 142 73q69 22 153 27q2 0 30 2h60l5 -1q58 -4 59 -4
q73 -7 137 -30q80 -28 137 -79q71 -64 106 -162q27 -76 34 -173q0 -5 0.5 -15t1.5 -15zM468 231h7h220q24 0 24 23v61q0 25 -26 25h-444q-5 0 -6 -1q-12 -1 -14.5 -12t7.5 -17l5 -5q104 -104 190 -191q1 0 3.5 -3.5t4.5 -4.5q7 -5 11 -6q8 -1 13 4t5 14v106v7zM555 536h-6
h-221q-23 0 -23 -23v-31v-32q0 -10 5 -16q7 -7 19 -7h447h4q11 1 14 12q3 10 -6 18q-4 2 -5 4l-193 193l-4 4q-8 11 -19 8q-12 -4 -12 -17v-53v-60z" />
    </font>
</defs>
</svg>
